<svg width="252" height="117" viewBox="0 0 252 117" fill="none" xmlns="http://www.w3.org/2000/svg">
<path d="M57 66.0299H67.069C67.069 66.0299 112.883 64.4564 112.883 84.1303C112.883 88.7675 103.533 92 98.7862 92C94.0397 92 84.4188 88.4288 86.2 84.1303C91.5491 71.219 127.483 76.299 127.483 76.299H134" stroke="#880088" stroke-width="3"/>
<path d="M173.105 38C171.136 38 169.41 39.3109 168.879 41.207L163.637 59.951H162.537C156.717 59.951 152 64.6691 152 70.488V94.7731H159.555V99.9038C159.555 103.413 162.399 106.257 165.908 106.257C169.418 106.257 172.264 103.413 172.264 99.9038V94.7731H221.735V99.9038C221.735 103.413 224.582 106.257 228.09 106.257C231.6 106.257 234.444 103.413 234.444 99.9038V94.7731H242V70.488C242 64.669 237.283 59.951 231.465 59.951H230.364L225.121 41.207C224.59 39.311 222.863 38 220.893 38H173.105ZM176.437 46.7812H217.562L221.246 59.9513H172.754L176.437 46.7812ZM198.999 64.2013L196.999 72.2013H202.999L194.999 84.2013L196.999 76.2013H190.999L198.999 64.2013ZM165.909 67.8478C169.418 67.8478 172.263 70.6923 172.263 74.2013C172.263 77.7093 169.418 80.5568 165.909 80.5568C162.399 80.5568 159.556 77.7093 159.556 74.2013C159.556 70.6923 162.4 67.8478 165.909 67.8478ZM228.089 67.8478C231.597 67.8478 234.443 70.6923 234.443 74.2013C234.443 77.7093 231.598 80.5568 228.089 80.5568C224.58 80.5568 221.736 77.7093 221.736 74.2013C221.736 70.6923 224.581 67.8478 228.089 67.8478Z" fill="black"/>
<path d="M137 73H136C134.895 73 134 73.8954 134 75V78.5C134 79.6046 134.895 80.5 136 80.5H137C138.105 80.5 139 79.6046 139 78.5V75C139 73.8954 138.105 73 137 73Z" fill="#0000FF"/>
<path d="M152 72C153.326 72 154.598 72.5268 155.536 73.4645C156.473 74.4022 157 75.6739 157 77C157 78.3261 156.473 79.5978 155.536 80.5355C154.598 81.4732 153.326 82 152 82V77V72Z" fill="#888800"/>
<path d="M97.5909 62.0606C97.3283 62.0606 97.0978 61.9981 96.8996 61.8731C96.7026 61.7481 96.5486 61.5732 96.4375 61.3485C96.3276 61.1237 96.2727 60.8611 96.2727 60.5606C96.2727 60.2576 96.3276 59.9931 96.4375 59.7671C96.5486 59.5411 96.7026 59.3655 96.8996 59.2405C97.0978 59.1155 97.3283 59.053 97.5909 59.053C97.8535 59.053 98.0833 59.1155 98.2803 59.2405C98.4785 59.3655 98.6326 59.5411 98.7424 59.7671C98.8535 59.9931 98.9091 60.2576 98.9091 60.5606C98.9091 60.8611 98.8535 61.1237 98.7424 61.3485C98.6326 61.5732 98.4785 61.7481 98.2803 61.8731C98.0833 61.9981 97.8535 62.0606 97.5909 62.0606ZM97.5909 61.6591C97.7904 61.6591 97.9545 61.608 98.0833 61.5057C98.2121 61.4034 98.3074 61.2689 98.3693 61.1023C98.4312 60.9356 98.4621 60.7551 98.4621 60.5606C98.4621 60.3662 98.4312 60.185 98.3693 60.0171C98.3074 59.8491 98.2121 59.7134 98.0833 59.6099C97.9545 59.5063 97.7904 59.4546 97.5909 59.4546C97.3914 59.4546 97.2273 59.5063 97.0985 59.6099C96.9697 59.7134 96.8744 59.8491 96.8125 60.0171C96.7506 60.185 96.7197 60.3662 96.7197 60.5606C96.7197 60.7551 96.7506 60.9356 96.8125 61.1023C96.8744 61.2689 96.9697 61.4034 97.0985 61.5057C97.2273 61.608 97.3914 61.6591 97.5909 61.6591ZM99.5914 62V59.0909H100.023V59.5303H100.053C100.107 59.3864 100.202 59.2696 100.341 59.1799C100.48 59.0903 100.637 59.0455 100.811 59.0455C100.844 59.0455 100.885 59.0461 100.934 59.0474C100.983 59.0486 101.021 59.0505 101.046 59.053V59.5076C101.031 59.5038 100.996 59.4981 100.942 59.4905C100.889 59.4817 100.833 59.4773 100.773 59.4773C100.632 59.4773 100.505 59.507 100.394 59.5663C100.285 59.6244 100.197 59.7052 100.133 59.8087C100.07 59.911 100.038 60.0278 100.038 60.1591V62H99.5914ZM101.576 62V59.0909H102.023V62H101.576ZM101.803 58.6061C101.716 58.6061 101.641 58.5764 101.578 58.5171C101.516 58.4577 101.485 58.3864 101.485 58.3031C101.485 58.2197 101.516 58.1484 101.578 58.089C101.641 58.0297 101.716 58 101.803 58C101.89 58 101.965 58.0297 102.026 58.089C102.09 58.1484 102.121 58.2197 102.121 58.3031C102.121 58.3864 102.09 58.4577 102.026 58.5171C101.965 58.5764 101.89 58.6061 101.803 58.6061ZM104.016 63.1515C103.8 63.1515 103.614 63.1237 103.459 63.0682C103.303 63.0139 103.174 62.9419 103.071 62.8523C102.968 62.7639 102.887 62.6692 102.826 62.5682L103.182 62.3182C103.223 62.3712 103.274 62.4318 103.336 62.5C103.398 62.5694 103.482 62.6294 103.589 62.6799C103.698 62.7317 103.84 62.7576 104.016 62.7576C104.25 62.7576 104.444 62.7008 104.597 62.5871C104.75 62.4735 104.826 62.2955 104.826 62.053V61.4621H104.788C104.755 61.5152 104.709 61.5808 104.648 61.6591C104.589 61.7361 104.503 61.8049 104.391 61.8655C104.279 61.9249 104.129 61.9545 103.94 61.9545C103.705 61.9545 103.494 61.899 103.307 61.7879C103.122 61.6768 102.975 61.5152 102.866 61.303C102.759 61.0909 102.705 60.8333 102.705 60.5303C102.705 60.2323 102.757 59.9729 102.862 59.7519C102.967 59.5297 103.113 59.358 103.3 59.2368C103.487 59.1143 103.702 59.053 103.947 59.053C104.137 59.053 104.287 59.0846 104.398 59.1477C104.511 59.2096 104.596 59.2803 104.656 59.3599C104.716 59.4381 104.763 59.5025 104.796 59.553H104.841V59.0909H105.273V62.0833C105.273 62.3333 105.216 62.5366 105.103 62.6932C104.99 62.851 104.839 62.9665 104.648 63.0398C104.459 63.1143 104.248 63.1515 104.016 63.1515ZM104 61.553C104.18 61.553 104.331 61.512 104.455 61.4299C104.579 61.3479 104.673 61.2298 104.737 61.0758C104.802 60.9217 104.834 60.7374 104.834 60.5227C104.834 60.3131 104.802 60.1282 104.739 59.9678C104.676 59.8075 104.582 59.6818 104.459 59.5909C104.335 59.5 104.182 59.4546 104 59.4546C103.811 59.4546 103.653 59.5025 103.527 59.5985C103.402 59.6945 103.308 59.8232 103.245 59.9849C103.183 60.1465 103.152 60.3258 103.152 60.5227C103.152 60.7248 103.184 60.9034 103.247 61.0587C103.311 61.2128 103.406 61.334 103.531 61.4224C103.657 61.5095 103.814 61.553 104 61.553ZM106.091 62V59.0909H106.538V62H106.091ZM106.319 58.6061C106.231 58.6061 106.156 58.5764 106.093 58.5171C106.031 58.4577 106 58.3864 106 58.3031C106 58.2197 106.031 58.1484 106.093 58.089C106.156 58.0297 106.231 58 106.319 58C106.406 58 106.48 58.0297 106.542 58.089C106.605 58.1484 106.637 58.2197 106.637 58.3031C106.637 58.3864 106.605 58.4577 106.542 58.5171C106.48 58.5764 106.406 58.6061 106.319 58.6061ZM107.804 60.25V62H107.357V59.0909H107.789V59.5455H107.827C107.895 59.3977 107.998 59.2791 108.137 59.1894C108.276 59.0985 108.455 59.053 108.675 59.053C108.872 59.053 109.044 59.0935 109.192 59.1743C109.34 59.2538 109.455 59.375 109.537 59.5379C109.619 59.6995 109.66 59.9041 109.66 60.1515V62H109.213V60.1818C109.213 59.9533 109.154 59.7753 109.035 59.6477C108.916 59.519 108.753 59.4546 108.546 59.4546C108.404 59.4546 108.276 59.4855 108.164 59.5474C108.053 59.6092 107.965 59.6995 107.9 59.8182C107.836 59.9369 107.804 60.0808 107.804 60.25ZM111.333 62.0682C111.148 62.0682 110.981 62.0335 110.831 61.964C110.681 61.8933 110.561 61.7917 110.473 61.6591C110.385 61.5253 110.34 61.3636 110.34 61.1742C110.34 61.0076 110.373 60.8725 110.439 60.7689C110.504 60.6641 110.592 60.5821 110.702 60.5227C110.812 60.4634 110.933 60.4192 111.066 60.3902C111.2 60.3599 111.334 60.3359 111.469 60.3182C111.646 60.2955 111.789 60.2784 111.899 60.2671C112.01 60.2544 112.091 60.2336 112.141 60.2046C112.193 60.1755 112.219 60.125 112.219 60.053V60.0379C112.219 59.851 112.168 59.7058 112.066 59.6023C111.965 59.4988 111.811 59.447 111.605 59.447C111.392 59.447 111.225 59.4937 111.104 59.5871C110.982 59.6806 110.897 59.7803 110.848 59.8864L110.424 59.7349C110.499 59.5581 110.6 59.4205 110.727 59.322C110.854 59.2222 110.993 59.1528 111.143 59.1137C111.295 59.0733 111.444 59.053 111.59 59.053C111.684 59.053 111.791 59.0644 111.912 59.0871C112.035 59.1086 112.153 59.1534 112.266 59.2216C112.381 59.2898 112.477 59.3927 112.552 59.5303C112.628 59.6679 112.666 59.8523 112.666 60.0833V62H112.219V61.6061H112.196C112.166 61.6692 112.116 61.7367 112.045 61.8087C111.974 61.8807 111.88 61.9419 111.763 61.9924C111.645 62.0429 111.502 62.0682 111.333 62.0682ZM111.401 61.6667C111.578 61.6667 111.727 61.6319 111.848 61.5625C111.97 61.4931 112.063 61.4034 112.124 61.2936C112.188 61.1837 112.219 61.0682 112.219 60.947V60.5379C112.2 60.5606 112.159 60.5814 112.094 60.6004C112.031 60.6181 111.958 60.6338 111.874 60.6477C111.792 60.6604 111.712 60.6717 111.634 60.6818C111.557 60.6907 111.494 60.6982 111.446 60.7046C111.33 60.7197 111.222 60.7443 111.121 60.7784C111.021 60.8112 110.94 60.8611 110.878 60.928C110.818 60.9937 110.787 61.0833 110.787 61.197C110.787 61.3523 110.845 61.4697 110.96 61.5492C111.076 61.6275 111.223 61.6667 111.401 61.6667ZM113.929 58.1212V62H113.482V58.1212H113.929ZM116.248 63.0909V59.0909H116.679V59.553H116.732C116.765 59.5025 116.811 59.4381 116.869 59.3599C116.928 59.2803 117.013 59.2096 117.123 59.1477C117.234 59.0846 117.384 59.053 117.573 59.053C117.818 59.053 118.034 59.1143 118.221 59.2368C118.408 59.3592 118.554 59.5328 118.658 59.7576C118.763 59.9823 118.816 60.2475 118.816 60.553C118.816 60.8611 118.763 61.1282 118.658 61.3542C118.554 61.5789 118.408 61.7532 118.223 61.8769C118.037 61.9994 117.823 62.0606 117.581 62.0606C117.394 62.0606 117.244 62.0297 117.132 61.9678C117.02 61.9047 116.933 61.8333 116.873 61.7538C116.812 61.673 116.765 61.6061 116.732 61.553H116.694V63.0909H116.248ZM116.687 60.5455C116.687 60.7652 116.719 60.959 116.783 61.1269C116.848 61.2936 116.942 61.4242 117.066 61.5189C117.189 61.6124 117.341 61.6591 117.52 61.6591C117.707 61.6591 117.863 61.6099 117.988 61.5114C118.114 61.4116 118.209 61.2778 118.272 61.1099C118.337 60.9407 118.369 60.7525 118.369 60.5455C118.369 60.3409 118.337 60.1566 118.274 59.9924C118.212 59.827 118.118 59.6964 117.992 59.6004C117.867 59.5032 117.71 59.4546 117.52 59.4546C117.338 59.4546 117.186 59.5006 117.062 59.5928C116.938 59.6837 116.845 59.8113 116.782 59.9754C116.718 60.1383 116.687 60.3283 116.687 60.5455ZM119.944 58.1212V62H119.497V58.1212H119.944ZM122.596 60.8106V59.0909H123.043V62H122.596V61.5076H122.566C122.498 61.6553 122.392 61.7809 122.248 61.8845C122.104 61.9867 121.922 62.0379 121.702 62.0379C121.521 62.0379 121.359 61.9981 121.218 61.9186C121.076 61.8378 120.965 61.7165 120.884 61.5549C120.804 61.392 120.763 61.1869 120.763 60.9394V59.0909H121.21V60.9091C121.21 61.1212 121.269 61.2904 121.388 61.4167C121.508 61.5429 121.661 61.6061 121.846 61.6061C121.958 61.6061 122.071 61.5777 122.185 61.5208C122.302 61.464 122.399 61.3769 122.477 61.2595C122.557 61.1421 122.596 60.9924 122.596 60.8106ZM125.036 63.1515C124.82 63.1515 124.635 63.1237 124.479 63.0682C124.324 63.0139 124.195 62.9419 124.091 62.8523C123.989 62.7639 123.907 62.6692 123.847 62.5682L124.203 62.3182C124.243 62.3712 124.294 62.4318 124.356 62.5C124.418 62.5694 124.503 62.6294 124.61 62.6799C124.719 62.7317 124.861 62.7576 125.036 62.7576C125.271 62.7576 125.465 62.7008 125.618 62.5871C125.77 62.4735 125.847 62.2955 125.847 62.053V61.4621H125.809C125.776 61.5152 125.729 61.5808 125.669 61.6591C125.61 61.7361 125.524 61.8049 125.411 61.8655C125.3 61.9249 125.15 61.9545 124.961 61.9545C124.726 61.9545 124.515 61.899 124.328 61.7879C124.142 61.6768 123.995 61.5152 123.887 61.303C123.779 61.0909 123.726 60.8333 123.726 60.5303C123.726 60.2323 123.778 59.9729 123.883 59.7519C123.988 59.5297 124.134 59.358 124.32 59.2368C124.507 59.1143 124.723 59.053 124.968 59.053C125.157 59.053 125.308 59.0846 125.419 59.1477C125.531 59.2096 125.617 59.2803 125.676 59.3599C125.737 59.4381 125.784 59.5025 125.817 59.553H125.862V59.0909H126.294V62.0833C126.294 62.3333 126.237 62.5366 126.123 62.6932C126.011 62.851 125.86 62.9665 125.669 63.0398C125.479 63.1143 125.269 63.1515 125.036 63.1515ZM125.021 61.553C125.2 61.553 125.352 61.512 125.476 61.4299C125.599 61.3479 125.693 61.2298 125.758 61.0758C125.822 60.9217 125.854 60.7374 125.854 60.5227C125.854 60.3131 125.823 60.1282 125.76 59.9678C125.697 59.8075 125.603 59.6818 125.479 59.5909C125.356 59.5 125.203 59.4546 125.021 59.4546C124.832 59.4546 124.674 59.5025 124.548 59.5985C124.423 59.6945 124.329 59.8232 124.265 59.9849C124.204 60.1465 124.173 60.3258 124.173 60.5227C124.173 60.7248 124.204 60.9034 124.267 61.0587C124.332 61.2128 124.426 61.334 124.551 61.4224C124.678 61.5095 124.834 61.553 125.021 61.553Z" fill="#0000FF"/>
<path d="M132.591 45.0606C132.318 45.0606 132.083 44.9962 131.886 44.8674C131.689 44.7386 131.538 44.5612 131.432 44.3352C131.326 44.1092 131.273 43.851 131.273 43.5606C131.273 43.2652 131.327 43.0044 131.436 42.7784C131.545 42.5512 131.698 42.3738 131.894 42.2462C132.091 42.1174 132.321 42.053 132.583 42.053C132.788 42.053 132.972 42.0909 133.136 42.1667C133.3 42.2424 133.435 42.3485 133.54 42.4849C133.645 42.6212 133.71 42.7803 133.735 42.9621H133.288C133.254 42.8296 133.178 42.7121 133.061 42.6099C132.944 42.5063 132.788 42.4546 132.591 42.4546C132.417 42.4546 132.264 42.5 132.133 42.5909C132.003 42.6806 131.901 42.8075 131.828 42.9716C131.756 43.1345 131.72 43.3258 131.72 43.5455C131.72 43.7702 131.755 43.9659 131.826 44.1326C131.898 44.2992 131.999 44.4287 132.129 44.5208C132.26 44.613 132.414 44.6591 132.591 44.6591C132.707 44.6591 132.812 44.6389 132.907 44.5985C133.002 44.5581 133.082 44.5 133.148 44.4242C133.213 44.3485 133.26 44.2576 133.288 44.1515H133.735C133.71 44.3232 133.647 44.4779 133.547 44.6155C133.449 44.7519 133.318 44.8605 133.155 44.9413C132.994 45.0208 132.806 45.0606 132.591 45.0606ZM134.835 43.25V45H134.388V41.1212H134.835V42.5455H134.873C134.941 42.3952 135.044 42.2759 135.18 42.1875C135.318 42.0979 135.501 42.053 135.729 42.053C135.927 42.053 136.101 42.0928 136.25 42.1724C136.399 42.2506 136.514 42.3712 136.597 42.5341C136.68 42.6957 136.722 42.9015 136.722 43.1515V45H136.275V43.1818C136.275 42.9508 136.215 42.7721 136.095 42.6458C135.976 42.5183 135.811 42.4546 135.6 42.4546C135.454 42.4546 135.323 42.4855 135.206 42.5474C135.092 42.6092 135.001 42.6995 134.934 42.8182C134.868 42.9369 134.835 43.0808 134.835 43.25ZM138.395 45.0682C138.211 45.0682 138.044 45.0335 137.893 44.964C137.743 44.8933 137.624 44.7917 137.535 44.6591C137.447 44.5253 137.403 44.3636 137.403 44.1742C137.403 44.0076 137.436 43.8725 137.501 43.7689C137.567 43.6641 137.655 43.5821 137.765 43.5227C137.874 43.4634 137.996 43.4192 138.128 43.3902C138.262 43.3599 138.397 43.3359 138.532 43.3182C138.708 43.2955 138.852 43.2784 138.962 43.2671C139.073 43.2544 139.154 43.2336 139.204 43.2046C139.256 43.1755 139.282 43.125 139.282 43.053V43.0379C139.282 42.851 139.231 42.7058 139.128 42.6023C139.027 42.4988 138.874 42.447 138.668 42.447C138.455 42.447 138.287 42.4937 138.166 42.5871C138.045 42.6806 137.96 42.7803 137.91 42.8864L137.486 42.7349C137.562 42.5581 137.663 42.4205 137.789 42.322C137.917 42.2222 138.056 42.1528 138.206 42.1137C138.357 42.0733 138.506 42.053 138.653 42.053C138.746 42.053 138.854 42.0644 138.975 42.0871C139.097 42.1086 139.215 42.1534 139.329 42.2216C139.444 42.2898 139.539 42.3927 139.615 42.5303C139.691 42.6679 139.729 42.8523 139.729 43.0833V45H139.282V44.6061H139.259C139.229 44.6692 139.178 44.7367 139.107 44.8087C139.037 44.8807 138.943 44.9419 138.825 44.9924C138.708 45.0429 138.565 45.0682 138.395 45.0682ZM138.463 44.6667C138.64 44.6667 138.789 44.6319 138.91 44.5625C139.033 44.4931 139.125 44.4034 139.187 44.2936C139.25 44.1837 139.282 44.0682 139.282 43.947V43.5379C139.263 43.5606 139.221 43.5814 139.157 43.6004C139.094 43.6181 139.02 43.6338 138.937 43.6477C138.855 43.6604 138.775 43.6717 138.696 43.6818C138.619 43.6907 138.557 43.6982 138.509 43.7046C138.393 43.7197 138.284 43.7443 138.183 43.7784C138.083 43.8112 138.003 43.8611 137.941 43.928C137.88 43.9937 137.85 44.0833 137.85 44.197C137.85 44.3523 137.907 44.4697 138.022 44.5492C138.138 44.6275 138.285 44.6667 138.463 44.6667ZM140.544 45V42.0909H140.976V42.5303H141.007C141.06 42.3864 141.156 42.2696 141.294 42.1799C141.433 42.0903 141.59 42.0455 141.764 42.0455C141.797 42.0455 141.838 42.0461 141.887 42.0474C141.936 42.0486 141.974 42.0505 141.999 42.053V42.5076C141.984 42.5038 141.949 42.4981 141.895 42.4905C141.842 42.4817 141.786 42.4773 141.726 42.4773C141.585 42.4773 141.459 42.507 141.347 42.5663C141.238 42.6244 141.151 42.7052 141.086 42.8087C141.023 42.911 140.991 43.0278 140.991 43.1591V45H140.544ZM143.615 46.1515C143.399 46.1515 143.213 46.1237 143.058 46.0682C142.902 46.0139 142.773 45.9419 142.669 45.8523C142.567 45.7639 142.486 45.6692 142.425 45.5682L142.781 45.3182C142.822 45.3712 142.873 45.4318 142.935 45.5C142.996 45.5694 143.081 45.6294 143.188 45.6799C143.297 45.7317 143.439 45.7576 143.615 45.7576C143.849 45.7576 144.043 45.7008 144.196 45.5871C144.349 45.4735 144.425 45.2955 144.425 45.053V44.4621H144.387C144.354 44.5152 144.308 44.5808 144.247 44.6591C144.188 44.7361 144.102 44.8049 143.99 44.8655C143.878 44.9249 143.728 44.9545 143.539 44.9545C143.304 44.9545 143.093 44.899 142.906 44.7879C142.721 44.6768 142.573 44.5152 142.465 44.303C142.358 44.0909 142.304 43.8333 142.304 43.5303C142.304 43.2323 142.356 42.9729 142.461 42.7519C142.566 42.5297 142.712 42.358 142.899 42.2368C143.085 42.1143 143.301 42.053 143.546 42.053C143.736 42.053 143.886 42.0846 143.997 42.1477C144.109 42.2096 144.195 42.2803 144.255 42.3599C144.315 42.4381 144.362 42.5025 144.395 42.553H144.44V42.0909H144.872V45.0833C144.872 45.3333 144.815 45.5366 144.702 45.6932C144.589 45.851 144.438 45.9665 144.247 46.0398C144.058 46.1143 143.847 46.1515 143.615 46.1515ZM143.599 44.553C143.779 44.553 143.93 44.512 144.054 44.4299C144.178 44.3479 144.272 44.2298 144.336 44.0758C144.4 43.9217 144.433 43.7374 144.433 43.5227C144.433 43.3131 144.401 43.1282 144.338 42.9678C144.275 42.8075 144.181 42.6818 144.058 42.5909C143.934 42.5 143.781 42.4546 143.599 42.4546C143.41 42.4546 143.252 42.5025 143.126 42.5985C143.001 42.6945 142.907 42.8232 142.844 42.9849C142.782 43.1465 142.751 43.3258 142.751 43.5227C142.751 43.7248 142.782 43.9034 142.846 44.0587C142.91 44.2128 143.005 44.334 143.13 44.4224C143.256 44.5095 143.412 44.553 143.599 44.553ZM145.69 45V42.0909H146.137V45H145.69ZM145.918 41.6061C145.83 41.6061 145.755 41.5764 145.692 41.5171C145.63 41.4577 145.599 41.3864 145.599 41.3031C145.599 41.2197 145.63 41.1484 145.692 41.089C145.755 41.0297 145.83 41 145.918 41C146.005 41 146.079 41.0297 146.141 41.089C146.204 41.1484 146.236 41.2197 146.236 41.3031C146.236 41.3864 146.204 41.4577 146.141 41.5171C146.079 41.5764 146.005 41.6061 145.918 41.6061ZM147.403 43.25V45H146.956V42.0909H147.388V42.5455H147.426C147.494 42.3977 147.597 42.2791 147.736 42.1894C147.875 42.0985 148.054 42.053 148.274 42.053C148.471 42.053 148.643 42.0935 148.791 42.1743C148.939 42.2538 149.054 42.375 149.136 42.5379C149.218 42.6995 149.259 42.9041 149.259 43.1515V45H148.812V43.1818C148.812 42.9533 148.753 42.7753 148.634 42.6477C148.515 42.519 148.352 42.4546 148.145 42.4546C148.003 42.4546 147.875 42.4855 147.763 42.5474C147.652 42.6092 147.564 42.6995 147.499 42.8182C147.435 42.9369 147.403 43.0808 147.403 43.25ZM151.25 46.1515C151.034 46.1515 150.848 46.1237 150.693 46.0682C150.538 46.0139 150.408 45.9419 150.305 45.8523C150.203 45.7639 150.121 45.6692 150.06 45.5682L150.417 45.3182C150.457 45.3712 150.508 45.4318 150.57 45.5C150.632 45.5694 150.716 45.6294 150.824 45.6799C150.932 45.7317 151.074 45.7576 151.25 45.7576C151.485 45.7576 151.679 45.7008 151.831 45.5871C151.984 45.4735 152.06 45.2955 152.06 45.053V44.4621H152.023C151.99 44.5152 151.943 44.5808 151.882 44.6591C151.823 44.7361 151.737 44.8049 151.625 44.8655C151.514 44.9249 151.364 44.9545 151.174 44.9545C150.939 44.9545 150.728 44.899 150.542 44.7879C150.356 44.6768 150.209 44.5152 150.1 44.303C149.993 44.0909 149.939 43.8333 149.939 43.5303C149.939 43.2323 149.992 42.9729 150.096 42.7519C150.201 42.5297 150.347 42.358 150.534 42.2368C150.721 42.1143 150.937 42.053 151.182 42.053C151.371 42.053 151.521 42.0846 151.632 42.1477C151.745 42.2096 151.831 42.2803 151.89 42.3599C151.951 42.4381 151.997 42.5025 152.03 42.553H152.076V42.0909H152.507V45.0833C152.507 45.3333 152.451 45.5366 152.337 45.6932C152.225 45.851 152.073 45.9665 151.882 46.0398C151.693 46.1143 151.482 46.1515 151.25 46.1515ZM151.235 44.553C151.414 44.553 151.566 44.512 151.689 44.4299C151.813 44.3479 151.907 44.2298 151.971 44.0758C152.036 43.9217 152.068 43.7374 152.068 43.5227C152.068 43.3131 152.036 43.1282 151.973 42.9678C151.91 42.8075 151.817 42.6818 151.693 42.5909C151.569 42.5 151.417 42.4546 151.235 42.4546C151.045 42.4546 150.888 42.5025 150.761 42.5985C150.636 42.6945 150.542 42.8232 150.479 42.9849C150.417 43.1465 150.386 43.3258 150.386 43.5227C150.386 43.7248 150.418 43.9034 150.481 44.0587C150.545 44.2128 150.64 44.334 150.765 44.4224C150.891 44.5095 151.048 44.553 151.235 44.553ZM132.674 48.0909V48.4697H131.167V48.0909H132.674ZM131.606 47.394H132.053V50.1667C132.053 50.2929 132.071 50.3876 132.108 50.4508C132.146 50.5126 132.194 50.5543 132.252 50.5758C132.311 50.596 132.374 50.6061 132.439 50.6061C132.489 50.6061 132.529 50.6035 132.561 50.5985C132.592 50.5922 132.617 50.5871 132.636 50.5833L132.727 50.9848C132.697 50.9962 132.655 51.0076 132.6 51.0189C132.546 51.0316 132.477 51.0379 132.394 51.0379C132.268 51.0379 132.144 51.0107 132.023 50.9564C131.903 50.9021 131.803 50.8194 131.723 50.7083C131.645 50.5972 131.606 50.4571 131.606 50.2879V47.394ZM134.535 51.0606C134.255 51.0606 134.013 50.9987 133.81 50.875C133.608 50.75 133.452 50.5758 133.342 50.3523C133.233 50.1275 133.179 49.8662 133.179 49.5682C133.179 49.2702 133.233 49.0076 133.342 48.7803C133.452 48.5518 133.604 48.3738 133.8 48.2462C133.997 48.1174 134.227 48.053 134.49 48.053C134.641 48.053 134.791 48.0783 134.938 48.1288C135.086 48.1793 135.221 48.2614 135.342 48.375C135.463 48.4874 135.56 48.6364 135.632 48.822C135.704 49.0076 135.74 49.2361 135.74 49.5076V49.697H133.497V49.3106H135.285C135.285 49.1465 135.252 49 135.187 48.8712C135.122 48.7424 135.03 48.6408 134.91 48.5663C134.791 48.4918 134.651 48.4546 134.49 48.4546C134.312 48.4546 134.157 48.4988 134.027 48.5871C133.899 48.6743 133.8 48.7879 133.73 48.928C133.661 49.0682 133.626 49.2184 133.626 49.3788V49.6364C133.626 49.8561 133.664 50.0423 133.74 50.1951C133.817 50.3466 133.923 50.4621 134.06 50.5417C134.196 50.62 134.354 50.6591 134.535 50.6591C134.652 50.6591 134.758 50.6427 134.853 50.6099C134.949 50.5758 135.032 50.5253 135.101 50.4583C135.171 50.3902 135.224 50.3056 135.262 50.2046L135.694 50.3258C135.649 50.4722 135.572 50.601 135.465 50.7121C135.358 50.822 135.225 50.9078 135.067 50.9697C134.909 51.0303 134.732 51.0606 134.535 51.0606ZM136.419 51V48.0909H136.851V48.5303H136.882C136.935 48.3864 137.031 48.2696 137.169 48.1799C137.308 48.0903 137.465 48.0455 137.639 48.0455C137.672 48.0455 137.713 48.0461 137.762 48.0474C137.812 48.0486 137.849 48.0505 137.874 48.053V48.5076C137.859 48.5038 137.824 48.4981 137.77 48.4905C137.717 48.4817 137.661 48.4773 137.601 48.4773C137.46 48.4773 137.334 48.507 137.222 48.5663C137.113 48.6244 137.026 48.7052 136.961 48.8087C136.898 48.911 136.866 49.0278 136.866 49.1591V51H136.419ZM138.404 51V48.0909H138.836V48.5455H138.874C138.934 48.3902 139.032 48.2696 139.167 48.1837C139.302 48.0966 139.464 48.053 139.654 48.053C139.846 48.053 140.005 48.0966 140.133 48.1837C140.262 48.2696 140.362 48.3902 140.434 48.5455H140.464C140.539 48.3952 140.651 48.2759 140.8 48.1875C140.949 48.0979 141.127 48.053 141.336 48.053C141.596 48.053 141.808 48.1345 141.974 48.2974C142.139 48.459 142.222 48.7109 142.222 49.053V51H141.775V49.053C141.775 48.8384 141.716 48.685 141.599 48.5928C141.481 48.5006 141.343 48.4546 141.184 48.4546C140.98 48.4546 140.821 48.5164 140.709 48.6402C140.596 48.7626 140.54 48.9179 140.54 49.1061V51H140.086V49.0076C140.086 48.8422 140.032 48.709 139.925 48.608C139.817 48.5057 139.679 48.4546 139.51 48.4546C139.394 48.4546 139.285 48.4855 139.184 48.5474C139.084 48.6092 139.004 48.6951 138.942 48.8049C138.881 48.9135 138.851 49.0392 138.851 49.1818V51H138.404ZM143.039 51V48.0909H143.486V51H143.039ZM143.266 47.6061C143.179 47.6061 143.104 47.5764 143.041 47.5171C142.979 47.4577 142.948 47.3864 142.948 47.3031C142.948 47.2197 142.979 47.1484 143.041 47.089C143.104 47.0297 143.179 47 143.266 47C143.354 47 143.428 47.0297 143.49 47.089C143.553 47.1484 143.585 47.2197 143.585 47.3031C143.585 47.3864 143.553 47.4577 143.49 47.5171C143.428 47.5764 143.354 47.6061 143.266 47.6061ZM144.752 49.25V51H144.305V48.0909H144.737V48.5455H144.775C144.843 48.3977 144.946 48.2791 145.085 48.1894C145.224 48.0985 145.403 48.053 145.623 48.053C145.82 48.053 145.992 48.0935 146.14 48.1743C146.288 48.2538 146.403 48.375 146.485 48.5379C146.567 48.6995 146.608 48.9041 146.608 49.1515V51H146.161V49.1818C146.161 48.9533 146.102 48.7753 145.983 48.6477C145.864 48.519 145.701 48.4546 145.494 48.4546C145.352 48.4546 145.224 48.4855 145.112 48.5474C145.001 48.6092 144.913 48.6995 144.848 48.8182C144.784 48.9369 144.752 49.0808 144.752 49.25ZM148.281 51.0682C148.096 51.0682 147.929 51.0335 147.779 50.964C147.629 50.8933 147.509 50.7917 147.421 50.6591C147.332 50.5253 147.288 50.3636 147.288 50.1742C147.288 50.0076 147.321 49.8725 147.387 49.7689C147.452 49.6641 147.54 49.5821 147.65 49.5227C147.76 49.4634 147.881 49.4192 148.014 49.3902C148.147 49.3599 148.282 49.3359 148.417 49.3182C148.594 49.2955 148.737 49.2784 148.847 49.2671C148.958 49.2544 149.039 49.2336 149.089 49.2046C149.141 49.1755 149.167 49.125 149.167 49.053V49.0379C149.167 48.851 149.116 48.7058 149.014 48.6023C148.913 48.4988 148.759 48.447 148.553 48.447C148.34 48.447 148.173 48.4937 148.052 48.5871C147.93 48.6806 147.845 48.7803 147.796 48.8864L147.372 48.7349C147.447 48.5581 147.548 48.4205 147.675 48.322C147.802 48.2222 147.941 48.1528 148.091 48.1137C148.243 48.0733 148.392 48.053 148.538 48.053C148.632 48.053 148.739 48.0644 148.86 48.0871C148.983 48.1086 149.101 48.1534 149.214 48.2216C149.329 48.2898 149.425 48.3927 149.5 48.5303C149.576 48.6679 149.614 48.8523 149.614 49.0833V51H149.167V50.6061H149.144C149.114 50.6692 149.063 50.7367 148.993 50.8087C148.922 50.8807 148.828 50.9419 148.711 50.9924C148.593 51.0429 148.45 51.0682 148.281 51.0682ZM148.349 50.6667C148.526 50.6667 148.675 50.6319 148.796 50.5625C148.918 50.4931 149.01 50.4034 149.072 50.2936C149.135 50.1837 149.167 50.0682 149.167 49.947V49.5379C149.148 49.5606 149.106 49.5814 149.042 49.6004C148.979 49.6181 148.906 49.6338 148.822 49.6477C148.74 49.6604 148.66 49.6717 148.582 49.6818C148.505 49.6907 148.442 49.6982 148.394 49.7046C148.278 49.7197 148.17 49.7443 148.069 49.7784C147.969 49.8112 147.888 49.8611 147.826 49.928C147.766 49.9937 147.735 50.0833 147.735 50.197C147.735 50.3523 147.793 50.4697 147.908 50.5492C148.024 50.6275 148.171 50.6667 148.349 50.6667ZM150.877 47.1212V51H150.43V47.1212H150.877Z" fill="#80A829"/>
<path d="M149.788 31.0909L148.712 34H148.258L147.182 31.0909H147.667L148.47 33.4091H148.5L149.303 31.0909H149.788ZM151.493 34.0606C151.213 34.0606 150.971 33.9987 150.768 33.875C150.566 33.75 150.41 33.5758 150.3 33.3523C150.192 33.1275 150.137 32.8662 150.137 32.5682C150.137 32.2702 150.192 32.0076 150.3 31.7803C150.41 31.5518 150.563 31.3738 150.758 31.2462C150.955 31.1174 151.185 31.053 151.448 31.053C151.599 31.053 151.749 31.0783 151.897 31.1288C152.044 31.1793 152.179 31.2614 152.3 31.375C152.421 31.4874 152.518 31.6364 152.59 31.822C152.662 32.0076 152.698 32.2361 152.698 32.5076V32.697H150.455V32.3106H152.243C152.243 32.1465 152.211 32 152.145 31.8712C152.08 31.7424 151.988 31.6408 151.868 31.5663C151.75 31.4918 151.61 31.4546 151.448 31.4546C151.27 31.4546 151.116 31.4988 150.986 31.5871C150.857 31.6743 150.758 31.7879 150.688 31.928C150.619 32.0682 150.584 32.2184 150.584 32.3788V32.6364C150.584 32.8561 150.622 33.0423 150.698 33.1951C150.775 33.3466 150.882 33.4621 151.018 33.5417C151.154 33.62 151.313 33.6591 151.493 33.6591C151.611 33.6591 151.717 33.6427 151.812 33.6099C151.907 33.5758 151.99 33.5253 152.06 33.4583C152.129 33.3902 152.183 33.3056 152.221 33.2046L152.652 33.3258C152.607 33.4722 152.531 33.601 152.423 33.7121C152.316 33.822 152.183 33.9078 152.026 33.9697C151.868 34.0303 151.69 34.0606 151.493 34.0606ZM153.825 32.25V34H153.378V30.1212H153.825V31.5455H153.863C153.931 31.3952 154.033 31.2759 154.169 31.1875C154.307 31.0979 154.49 31.053 154.719 31.053C154.917 31.053 155.091 31.0928 155.24 31.1724C155.389 31.2506 155.504 31.3712 155.586 31.5341C155.669 31.6957 155.711 31.9015 155.711 32.1515V34H155.264V32.1818C155.264 31.9508 155.204 31.7721 155.084 31.6458C154.966 31.5183 154.801 31.4546 154.59 31.4546C154.443 31.4546 154.312 31.4855 154.196 31.5474C154.081 31.6092 153.99 31.6995 153.923 31.8182C153.858 31.9369 153.825 32.0808 153.825 32.25ZM156.529 34V31.0909H156.976V34H156.529ZM156.756 30.6061C156.669 30.6061 156.594 30.5764 156.531 30.5171C156.469 30.4577 156.438 30.3864 156.438 30.3031C156.438 30.2197 156.469 30.1484 156.531 30.089C156.594 30.0297 156.669 30 156.756 30C156.843 30 156.918 30.0297 156.98 30.089C157.043 30.1484 157.074 30.2197 157.074 30.3031C157.074 30.3864 157.043 30.4577 156.98 30.5171C156.918 30.5764 156.843 30.6061 156.756 30.6061ZM158.976 34.0606C158.704 34.0606 158.469 33.9962 158.272 33.8674C158.075 33.7386 157.923 33.5612 157.817 33.3352C157.711 33.1092 157.658 32.851 157.658 32.5606C157.658 32.2652 157.712 32.0044 157.821 31.7784C157.931 31.5512 158.084 31.3738 158.279 31.2462C158.476 31.1174 158.706 31.053 158.969 31.053C159.173 31.053 159.358 31.0909 159.522 31.1667C159.686 31.2424 159.82 31.3485 159.925 31.4849C160.03 31.6212 160.095 31.7803 160.12 31.9621H159.673C159.639 31.8296 159.563 31.7121 159.446 31.6099C159.33 31.5063 159.173 31.4546 158.976 31.4546C158.802 31.4546 158.649 31.5 158.518 31.5909C158.388 31.6806 158.286 31.8075 158.213 31.9716C158.141 32.1345 158.105 32.3258 158.105 32.5455C158.105 32.7702 158.14 32.9659 158.211 33.1326C158.283 33.2992 158.384 33.4287 158.514 33.5208C158.645 33.613 158.799 33.6591 158.976 33.6591C159.092 33.6591 159.198 33.6389 159.293 33.5985C159.387 33.5581 159.467 33.5 159.533 33.4242C159.599 33.3485 159.645 33.2576 159.673 33.1515H160.12C160.095 33.3232 160.032 33.4779 159.933 33.6155C159.834 33.7519 159.704 33.8605 159.541 33.9413C159.379 34.0208 159.191 34.0606 158.976 34.0606ZM161.221 30.1212V34H160.774V30.1212H161.221ZM163.259 34.0606C162.979 34.0606 162.737 33.9987 162.534 33.875C162.332 33.75 162.176 33.5758 162.066 33.3523C161.957 33.1275 161.903 32.8662 161.903 32.5682C161.903 32.2702 161.957 32.0076 162.066 31.7803C162.176 31.5518 162.328 31.3738 162.524 31.2462C162.721 31.1174 162.951 31.053 163.213 31.053C163.365 31.053 163.515 31.0783 163.662 31.1288C163.81 31.1793 163.944 31.2614 164.066 31.375C164.187 31.4874 164.284 31.6364 164.355 31.822C164.427 32.0076 164.463 32.2361 164.463 32.5076V32.697H162.221V32.3106H164.009C164.009 32.1465 163.976 32 163.91 31.8712C163.846 31.7424 163.754 31.6408 163.634 31.5663C163.515 31.4918 163.375 31.4546 163.213 31.4546C163.035 31.4546 162.881 31.4988 162.751 31.5871C162.623 31.6743 162.523 31.7879 162.454 31.928C162.385 32.0682 162.35 32.2184 162.35 32.3788V32.6364C162.35 32.8561 162.388 33.0423 162.463 33.1951C162.54 33.3466 162.647 33.4621 162.784 33.5417C162.92 33.62 163.078 33.6591 163.259 33.6591C163.376 33.6591 163.482 33.6427 163.577 33.6099C163.673 33.5758 163.756 33.5253 163.825 33.4583C163.895 33.3902 163.948 33.3056 163.986 33.2046L164.418 33.3258C164.373 33.4722 164.296 33.601 164.189 33.7121C164.081 33.822 163.949 33.9078 163.791 33.9697C163.633 34.0303 163.456 34.0606 163.259 34.0606ZM166.643 34V31.0909H167.09V34H166.643ZM166.871 30.6061C166.783 30.6061 166.708 30.5764 166.645 30.5171C166.583 30.4577 166.552 30.3864 166.552 30.3031C166.552 30.2197 166.583 30.1484 166.645 30.089C166.708 30.0297 166.783 30 166.871 30C166.958 30 167.032 30.0297 167.094 30.089C167.157 30.1484 167.189 30.2197 167.189 30.3031C167.189 30.3864 167.157 30.4577 167.094 30.5171C167.032 30.5764 166.958 30.6061 166.871 30.6061ZM168.356 32.25V34H167.909V31.0909H168.341V31.5455H168.379C168.447 31.3977 168.55 31.2791 168.689 31.1894C168.828 31.0985 169.007 31.053 169.227 31.053C169.424 31.053 169.596 31.0935 169.744 31.1743C169.892 31.2538 170.007 31.375 170.089 31.5379C170.171 31.6995 170.212 31.9041 170.212 32.1515V34H169.765V32.1818C169.765 31.9533 169.706 31.7753 169.587 31.6477C169.468 31.519 169.305 31.4546 169.098 31.4546C168.956 31.4546 168.828 31.4855 168.716 31.5474C168.605 31.6092 168.517 31.6995 168.453 31.8182C168.388 31.9369 168.356 32.0808 168.356 32.25ZM171.476 30.1212V34H171.029V30.1212H171.476ZM173.514 34.0606C173.234 34.0606 172.992 33.9987 172.789 33.875C172.587 33.75 172.431 33.5758 172.321 33.3523C172.212 33.1275 172.158 32.8662 172.158 32.5682C172.158 32.2702 172.212 32.0076 172.321 31.7803C172.431 31.5518 172.583 31.3738 172.779 31.2462C172.976 31.1174 173.206 31.053 173.469 31.053C173.62 31.053 173.77 31.0783 173.917 31.1288C174.065 31.1793 174.2 31.2614 174.321 31.375C174.442 31.4874 174.539 31.6364 174.611 31.822C174.683 32.0076 174.719 32.2361 174.719 32.5076V32.697H172.476V32.3106H174.264C174.264 32.1465 174.231 32 174.166 31.8712C174.101 31.7424 174.009 31.6408 173.889 31.5663C173.77 31.4918 173.63 31.4546 173.469 31.4546C173.291 31.4546 173.137 31.4988 173.006 31.5871C172.878 31.6743 172.779 31.7879 172.709 31.928C172.64 32.0682 172.605 32.2184 172.605 32.3788V32.6364C172.605 32.8561 172.643 33.0423 172.719 33.1951C172.796 33.3466 172.902 33.4621 173.039 33.5417C173.175 33.62 173.333 33.6591 173.514 33.6591C173.631 33.6591 173.738 33.6427 173.832 33.6099C173.928 33.5758 174.011 33.5253 174.08 33.4583C174.15 33.3902 174.203 33.3056 174.241 33.2046L174.673 33.3258C174.628 33.4722 174.551 33.601 174.444 33.7121C174.337 33.822 174.204 33.9078 174.046 33.9697C173.888 34.0303 173.711 34.0606 173.514 34.0606ZM176.664 31.0909V31.4697H175.156V31.0909H176.664ZM175.595 30.394H176.042V33.1667C176.042 33.2929 176.061 33.3876 176.097 33.4508C176.135 33.5126 176.183 33.5543 176.241 33.5758C176.301 33.596 176.363 33.6061 176.429 33.6061C176.478 33.6061 176.518 33.6035 176.55 33.5985C176.582 33.5922 176.607 33.5871 176.626 33.5833L176.717 33.9848C176.686 33.9962 176.644 34.0076 176.59 34.0189C176.535 34.0316 176.467 34.0379 176.383 34.0379C176.257 34.0379 176.133 34.0107 176.012 33.9564C175.892 33.9021 175.792 33.8194 175.713 33.7083C175.635 33.5972 175.595 33.4571 175.595 33.2879V30.394Z" fill="#888800"/>
<path d="M139 73H152V81H139V73Z" fill="#80A829"/>
<path fill-rule="evenodd" clip-rule="evenodd" d="M36.7399 65.7265H41.1046C41.2552 65.7265 41.4043 65.7585 41.5434 65.8207C41.6825 65.8829 41.8089 65.974 41.9154 66.0889C42.0219 66.2038 42.1064 66.3402 42.164 66.4903C42.2216 66.6404 42.2513 66.8013 42.2513 66.9638C42.2482 67.2073 42.18 67.4447 42.0549 67.6474L31.6592 86.788C31.5218 87.0408 31.3052 87.2324 31.0484 87.3283C30.7917 87.4241 30.5117 87.4179 30.2588 87.3107C30.006 87.2035 29.7969 87.0025 29.6692 86.7437C29.5415 86.485 29.5036 86.1855 29.5624 85.8993L31.0954 74.162L25.9261 74.2577C25.6258 74.2614 25.3363 74.1371 25.1205 73.9119C24.9046 73.6866 24.7798 73.3786 24.7732 73.0546C24.7659 72.8261 24.821 72.6003 24.9315 72.4052L35.1498 53.2646C35.2925 53.0378 35.5011 52.8685 35.7427 52.7835C35.9842 52.6984 36.2452 52.7023 36.4844 52.7947C36.7237 52.887 36.9278 53.0625 37.0646 53.2935C37.2014 53.5246 37.2632 53.7982 37.2403 54.0712L36.7145 65.7265H36.7399ZM23.8483 25.5723H44.006C45.0138 25.5732 45.9799 26.006 46.6921 26.7754C46.7364 26.8301 46.7871 26.8779 46.8314 26.9394C47.4621 27.6882 47.8141 28.662 47.8197 29.6738V43.5508C47.8197 44.6386 47.4192 45.6818 46.7064 46.451C45.9936 47.2202 45.0268 47.6523 44.0187 47.6523H23.8483C22.8427 47.6495 21.8792 47.2169 21.1686 46.4492C20.4555 45.6807 20.0545 44.6382 20.0536 43.5508V29.667C20.0545 28.5795 20.4555 27.537 21.1686 26.7685C21.2163 26.7171 21.267 26.6692 21.3206 26.625C22.0163 25.9494 22.9186 25.5745 23.8546 25.5723H23.8483ZM53.3564 93.2138H14.5992C14.3845 93.3154 14.189 93.4591 14.0228 93.6376C13.85 93.8231 13.713 94.0436 13.6195 94.2865C13.526 94.5293 13.4779 94.7897 13.4779 95.0526V97.2675H54.4967V95.0526C54.4914 94.5227 54.2961 94.0156 53.9519 93.6376C53.7805 93.4546 53.5784 93.3084 53.3564 93.2069V93.2138Z" fill="white"/>
<path fill-rule="evenodd" clip-rule="evenodd" d="M54.9782 48.8691V89.8368C55.5204 90.1165 56.0134 90.4959 56.4352 90.9579C56.9347 91.4957 57.3303 92.1352 57.5989 92.8393C57.8675 93.5434 58.0038 94.2981 57.9999 95.0595V99.161C57.9916 99.6554 57.8024 100.126 57.4737 100.471C57.145 100.815 56.7033 101.005 56.2451 101H11.7358C11.2755 101 10.834 100.803 10.5085 100.451C10.1829 100.1 10.0001 99.6236 10.0001 99.1268V95.0253C9.99653 94.2639 10.133 93.5094 10.4016 92.8053C10.6702 92.1013 11.0656 91.4617 11.5648 90.9237C11.86 90.6258 12.1851 90.3645 12.534 90.1444V26.9258C12.5357 25.6205 12.7756 24.3284 13.24 23.1232C13.7045 21.9179 14.3843 20.8232 15.2408 19.9015C16.0973 18.9798 17.1137 18.2492 18.2319 17.7514C19.35 17.2535 20.5481 16.9982 21.7577 17H45.6911C48.1404 17.0072 50.4874 18.0603 52.2193 19.9292C53.9512 21.798 54.9271 24.3307 54.9338 26.9736V45.0273L54.9782 48.8691ZM41.1046 65.7265H36.7399H36.7145L37.2403 54.0712C37.2632 53.7982 37.2014 53.5246 37.0646 53.2935C36.9278 53.0625 36.7237 52.887 36.4844 52.7947C36.2452 52.7023 35.9842 52.6984 35.7427 52.7835C35.5011 52.8685 35.2925 53.0378 35.1498 53.2646L24.9315 72.4052C24.821 72.6003 24.7659 72.8261 24.7732 73.0546C24.7798 73.3786 24.9046 73.6866 25.1205 73.9119C25.3363 74.1371 25.6258 74.2614 25.9261 74.2577L31.0954 74.162L29.5624 85.8993C29.5036 86.1855 29.5415 86.485 29.6692 86.7437C29.7969 87.0025 30.006 87.2035 30.2588 87.3107C30.5117 87.4179 30.7917 87.4241 31.0484 87.3283C31.3052 87.2324 31.5218 87.0408 31.6592 86.788L42.0549 67.6474C42.18 67.4447 42.2482 67.2073 42.2513 66.9638C42.2513 66.8013 42.2216 66.6404 42.164 66.4903C42.1064 66.3402 42.0219 66.2038 41.9154 66.0889C41.8089 65.974 41.6825 65.8829 41.5434 65.8207C41.4043 65.7585 41.2552 65.7265 41.1046 65.7265ZM44.006 25.5723H23.8546C22.9186 25.5745 22.0163 25.9494 21.3206 26.625C21.267 26.6692 21.2163 26.7171 21.1686 26.7685C20.4555 27.537 20.0545 28.5795 20.0536 29.667V43.5508C20.0545 44.6382 20.4555 45.6807 21.1686 46.4492C21.8792 47.2169 22.8427 47.6495 23.8483 47.6523H44.0187C45.0268 47.6523 45.9936 47.2202 46.7064 46.451C47.4192 45.6818 47.8197 44.6386 47.8197 43.5508V29.6738C47.8141 28.662 47.4621 27.6882 46.8314 26.9394C46.7871 26.8779 46.7364 26.8301 46.6921 26.7754C45.9799 26.006 45.0138 25.5732 44.006 25.5723ZM14.5992 93.2138H53.3564V93.2069C53.5784 93.3084 53.7805 93.4546 53.9519 93.6376C54.2961 94.0156 54.4914 94.5227 54.4967 95.0526V97.2675H13.4779V95.0526C13.4779 94.7897 13.526 94.5293 13.6195 94.2865C13.713 94.0436 13.85 93.8231 14.0228 93.6376C14.189 93.4591 14.3845 93.3154 14.5992 93.2138Z" fill="black"/>
<path d="M55 71C54.1223 71 53.2601 70.7689 52.5 70.3301C51.7399 69.8912 51.1087 69.2601 50.6699 68.5C50.231 67.7399 50 66.8777 50 66C50 65.1223 50.231 64.2601 50.6699 63.5C51.1087 62.7399 51.7399 62.1088 52.5 61.6699C53.2601 61.2311 54.1223 61 55 61V66V71Z" fill="#FF0000"/>
<path d="M85 62L89.5372 58.4297L84.1767 56.2855L85 62ZM90.5358 46.8143L86.207 57.6362L87.1355 58.0076L91.4642 47.1857L90.5358 46.8143Z" fill="#880088"/>
<path d="M57 32L61.5372 28.4297L56.1767 26.2855L57 32ZM62.5358 16.8143L58.207 27.6362L59.1355 28.0076L63.4642 17.1857L62.5358 16.8143Z" fill="#880088"/>
<path d="M58 62H57C55.8954 62 55 62.8954 55 64V67.5C55 68.6046 55.8954 69.5 57 69.5H58C59.1046 69.5 60 68.6046 60 67.5V64C60 62.8954 59.1046 62 58 62Z" fill="#008800"/>
<path d="M86.5909 45.0606C86.3182 45.0606 86.0833 44.9962 85.8864 44.8674C85.6894 44.7386 85.5379 44.5612 85.4318 44.3352C85.3258 44.1092 85.2727 43.851 85.2727 43.5606C85.2727 43.2652 85.327 43.0044 85.4356 42.7784C85.5455 42.5512 85.6982 42.3738 85.8939 42.2462C86.0909 42.1174 86.3207 42.053 86.5833 42.053C86.7879 42.053 86.9722 42.0909 87.1364 42.1667C87.3005 42.2424 87.435 42.3485 87.5398 42.4849C87.6446 42.6212 87.7096 42.7803 87.7348 42.9621H87.2879C87.2538 42.8296 87.178 42.7121 87.0606 42.6099C86.9444 42.5063 86.7879 42.4546 86.5909 42.4546C86.4167 42.4546 86.2639 42.5 86.1326 42.5909C86.0025 42.6806 85.9009 42.8075 85.8276 42.9716C85.7557 43.1345 85.7197 43.3258 85.7197 43.5455C85.7197 43.7702 85.755 43.9659 85.8258 44.1326C85.8977 44.2992 85.9987 44.4287 86.1288 44.5208C86.2601 44.613 86.4141 44.6591 86.5909 44.6591C86.7071 44.6591 86.8125 44.6389 86.9072 44.5985C87.0019 44.5581 87.0821 44.5 87.1477 44.4242C87.2134 44.3485 87.2601 44.2576 87.2879 44.1515H87.7348C87.7096 44.3232 87.6471 44.4779 87.5473 44.6155C87.4488 44.7519 87.3182 44.8605 87.1553 44.9413C86.9937 45.0208 86.8055 45.0606 86.5909 45.0606ZM89.2443 45.0682C89.0599 45.0682 88.8927 45.0335 88.7424 44.964C88.5921 44.8933 88.4728 44.7917 88.3844 44.6591C88.2961 44.5253 88.2519 44.3636 88.2519 44.1742C88.2519 44.0076 88.2847 43.8725 88.3504 43.7689C88.416 43.6641 88.5038 43.5821 88.6136 43.5227C88.7235 43.4634 88.8447 43.4192 88.9772 43.3902C89.1111 43.3599 89.2456 43.3359 89.3807 43.3182C89.5574 43.2955 89.7007 43.2784 89.8106 43.2671C89.9217 43.2544 90.0025 43.2336 90.053 43.2046C90.1048 43.1755 90.1306 43.125 90.1306 43.053V43.0379C90.1306 42.851 90.0795 42.7058 89.9772 42.6023C89.8762 42.4988 89.7228 42.447 89.517 42.447C89.3036 42.447 89.1363 42.4937 89.0151 42.5871C88.8939 42.6806 88.8087 42.7803 88.7594 42.8864L88.3352 42.7349C88.411 42.5581 88.512 42.4205 88.6382 42.322C88.7658 42.2222 88.9046 42.1528 89.0549 42.1137C89.2064 42.0733 89.3554 42.053 89.5019 42.053C89.5953 42.053 89.7026 42.0644 89.8238 42.0871C89.9463 42.1086 90.0644 42.1534 90.178 42.2216C90.2929 42.2898 90.3882 42.3927 90.464 42.5303C90.5397 42.6679 90.5776 42.8523 90.5776 43.0833V45H90.1306V44.6061H90.1079C90.0776 44.6692 90.0271 44.7367 89.9564 44.8087C89.8857 44.8807 89.7916 44.9419 89.6742 44.9924C89.5568 45.0429 89.4135 45.0682 89.2443 45.0682ZM89.3125 44.6667C89.4892 44.6667 89.6382 44.6319 89.7594 44.5625C89.8819 44.4931 89.9741 44.4034 90.036 44.2936C90.0991 44.1837 90.1306 44.0682 90.1306 43.947V43.5379C90.1117 43.5606 90.07 43.5814 90.0057 43.6004C89.9425 43.6181 89.8693 43.6338 89.786 43.6477C89.7039 43.6604 89.6237 43.6717 89.5454 43.6818C89.4684 43.6907 89.4059 43.6982 89.3579 43.7046C89.2418 43.7197 89.1332 43.7443 89.0322 43.7784C88.9324 43.8112 88.8516 43.8611 88.7897 43.928C88.7291 43.9937 88.6988 44.0833 88.6988 44.197C88.6988 44.3523 88.7563 44.4697 88.8712 44.5492C88.9873 44.6275 89.1344 44.6667 89.3125 44.6667ZM91.454 45V41.1212H91.901V42.553H91.9389C91.9717 42.5025 92.0172 42.4381 92.0752 42.3599C92.1346 42.2803 92.2192 42.2096 92.329 42.1477C92.4401 42.0846 92.5904 42.053 92.7798 42.053C93.0247 42.053 93.2406 42.1143 93.4275 42.2368C93.6144 42.3592 93.7602 42.5328 93.865 42.7576C93.9698 42.9823 94.0222 43.2475 94.0222 43.553C94.0222 43.8611 93.9698 44.1282 93.865 44.3542C93.7602 44.5789 93.615 44.7532 93.4294 44.8769C93.2438 44.9994 93.0298 45.0606 92.7874 45.0606C92.6005 45.0606 92.4509 45.0297 92.3385 44.9678C92.2261 44.9047 92.1396 44.8333 92.079 44.7538C92.0184 44.673 91.9717 44.6061 91.9389 44.553H91.8858V45H91.454ZM91.8934 43.5455C91.8934 43.7652 91.9256 43.959 91.99 44.1269C92.0544 44.2936 92.1485 44.4242 92.2722 44.5189C92.3959 44.6124 92.5475 44.6591 92.7268 44.6591C92.9136 44.6591 93.0696 44.6099 93.1946 44.5114C93.3208 44.4116 93.4155 44.2778 93.4786 44.1099C93.543 43.9407 93.5752 43.7525 93.5752 43.5455C93.5752 43.3409 93.5437 43.1566 93.4805 42.9924C93.4187 42.827 93.3246 42.6964 93.1983 42.6004C93.0733 42.5032 92.9161 42.4546 92.7268 42.4546C92.5449 42.4546 92.3922 42.5006 92.2684 42.5928C92.1447 42.6837 92.0513 42.8113 91.9881 42.9754C91.925 43.1383 91.8934 43.3283 91.8934 43.5455ZM95.1529 41.1212V45H94.7059V41.1212H95.1529ZM97.1912 45.0606C96.9109 45.0606 96.6691 44.9987 96.4658 44.875C96.2638 44.75 96.1079 44.5758 95.998 44.3523C95.8895 44.1275 95.8352 43.8662 95.8352 43.5682C95.8352 43.2702 95.8895 43.0076 95.998 42.7803C96.1079 42.5518 96.2607 42.3738 96.4564 42.2462C96.6533 42.1174 96.8831 42.053 97.1458 42.053C97.2973 42.053 97.4469 42.0783 97.5946 42.1288C97.7423 42.1793 97.8768 42.2614 97.998 42.375C98.1192 42.4874 98.2158 42.6364 98.2878 42.822C98.3598 43.0076 98.3957 43.2361 98.3957 43.5076V43.697H96.1533V43.3106H97.9412C97.9412 43.1465 97.9084 43 97.8427 42.8712C97.7783 42.7424 97.6862 42.6408 97.5662 42.5663C97.4475 42.4918 97.3074 42.4546 97.1458 42.4546C96.9677 42.4546 96.8137 42.4988 96.6836 42.5871C96.5549 42.6743 96.4557 42.7879 96.3863 42.928C96.3168 43.0682 96.2821 43.2184 96.2821 43.3788V43.6364C96.2821 43.8561 96.32 44.0423 96.3958 44.1951C96.4728 44.3466 96.5795 44.4621 96.7158 44.5417C96.8522 44.62 97.0107 44.6591 97.1912 44.6591C97.3086 44.6591 97.4147 44.6427 97.5094 44.6099C97.6054 44.5758 97.6881 44.5253 97.7575 44.4583C97.8269 44.3902 97.8806 44.3056 97.9185 44.2046L98.3503 44.3258C98.3048 44.4722 98.2285 44.601 98.1211 44.7121C98.0138 44.822 97.8812 44.9078 97.7234 44.9697C97.5656 45.0303 97.3882 45.0606 97.1912 45.0606Z" fill="#880088"/>
<path d="M58.5909 15.0606C58.3182 15.0606 58.0833 14.9962 57.8864 14.8674C57.6894 14.7386 57.5379 14.5612 57.4318 14.3352C57.3258 14.1092 57.2727 13.851 57.2727 13.5606C57.2727 13.2652 57.327 13.0044 57.4356 12.7784C57.5455 12.5512 57.6982 12.3738 57.8939 12.2462C58.0909 12.1174 58.3207 12.053 58.5833 12.053C58.7879 12.053 58.9722 12.0909 59.1364 12.1667C59.3005 12.2424 59.435 12.3485 59.5398 12.4849C59.6446 12.6212 59.7096 12.7803 59.7348 12.9621H59.2879C59.2538 12.8296 59.178 12.7121 59.0606 12.6099C58.9444 12.5063 58.7879 12.4546 58.5909 12.4546C58.4167 12.4546 58.2639 12.5 58.1326 12.5909C58.0025 12.6806 57.9009 12.8075 57.8276 12.9716C57.7557 13.1345 57.7197 13.3258 57.7197 13.5455C57.7197 13.7702 57.755 13.9659 57.8258 14.1326C57.8977 14.2992 57.9987 14.4287 58.1288 14.5208C58.2601 14.613 58.4141 14.6591 58.5909 14.6591C58.7071 14.6591 58.8125 14.6389 58.9072 14.5985C59.0019 14.5581 59.0821 14.5 59.1477 14.4242C59.2134 14.3485 59.2601 14.2576 59.2879 14.1515H59.7348C59.7096 14.3232 59.6471 14.4779 59.5473 14.6155C59.4488 14.7519 59.3182 14.8605 59.1553 14.9413C58.9937 15.0208 58.8055 15.0606 58.5909 15.0606ZM60.8352 13.25V15H60.3882V11.1212H60.8352V12.5455H60.8731C60.9413 12.3952 61.0435 12.2759 61.1799 12.1875C61.3175 12.0979 61.5006 12.053 61.7291 12.053C61.9274 12.053 62.101 12.0928 62.25 12.1724C62.399 12.2506 62.5145 12.3712 62.5966 12.5341C62.6799 12.6957 62.7216 12.9015 62.7216 13.1515V15H62.2746V13.1818C62.2746 12.9508 62.2146 12.7721 62.0947 12.6458C61.976 12.5183 61.8112 12.4546 61.6004 12.4546C61.4539 12.4546 61.3226 12.4855 61.2064 12.5474C61.0915 12.6092 61.0006 12.6995 60.9337 12.8182C60.868 12.9369 60.8352 13.0808 60.8352 13.25ZM64.3953 15.0682C64.211 15.0682 64.0437 15.0335 63.8934 14.964C63.7432 14.8933 63.6239 14.7917 63.5355 14.6591C63.4471 14.5253 63.4029 14.3636 63.4029 14.1742C63.4029 14.0076 63.4357 13.8725 63.5014 13.7689C63.567 13.6641 63.6548 13.5821 63.7646 13.5227C63.8745 13.4634 63.9957 13.4192 64.1283 13.3902C64.2621 13.3599 64.3966 13.3359 64.5317 13.3182C64.7084 13.2955 64.8518 13.2784 64.9616 13.2671C65.0727 13.2544 65.1535 13.2336 65.204 13.2046C65.2558 13.1755 65.2817 13.125 65.2817 13.053V13.0379C65.2817 12.851 65.2305 12.7058 65.1283 12.6023C65.0273 12.4988 64.8738 12.447 64.668 12.447C64.4547 12.447 64.2874 12.4937 64.1661 12.5871C64.0449 12.6806 63.9597 12.7803 63.9105 12.8864L63.4862 12.7349C63.562 12.5581 63.663 12.4205 63.7893 12.322C63.9168 12.2222 64.0557 12.1528 64.2059 12.1137C64.3574 12.0733 64.5064 12.053 64.6529 12.053C64.7463 12.053 64.8536 12.0644 64.9749 12.0871C65.0973 12.1086 65.2154 12.1534 65.329 12.2216C65.4439 12.2898 65.5392 12.3927 65.615 12.5303C65.6908 12.6679 65.7286 12.8523 65.7286 13.0833V15H65.2817V14.6061H65.2589C65.2286 14.6692 65.1781 14.7367 65.1074 14.8087C65.0367 14.8807 64.9427 14.9419 64.8252 14.9924C64.7078 15.0429 64.5645 15.0682 64.3953 15.0682ZM64.4635 14.6667C64.6403 14.6667 64.7893 14.6319 64.9105 14.5625C65.0329 14.4931 65.1251 14.4034 65.187 14.2936C65.2501 14.1837 65.2817 14.0682 65.2817 13.947V13.5379C65.2627 13.5606 65.2211 13.5814 65.1567 13.6004C65.0935 13.6181 65.0203 13.6338 64.937 13.6477C64.8549 13.6604 64.7747 13.6717 64.6964 13.6818C64.6194 13.6907 64.5569 13.6982 64.5089 13.7046C64.3928 13.7197 64.2842 13.7443 64.1832 13.7784C64.0834 13.8112 64.0026 13.8611 63.9408 13.928C63.8802 13.9937 63.8499 14.0833 63.8499 14.197C63.8499 14.3523 63.9073 14.4697 64.0222 14.5492C64.1384 14.6275 64.2855 14.6667 64.4635 14.6667ZM66.5444 15V12.0909H66.9763V12.5303H67.0066C67.0596 12.3864 67.1556 12.2696 67.2944 12.1799C67.4333 12.0903 67.5899 12.0455 67.7641 12.0455C67.797 12.0455 67.838 12.0461 67.8872 12.0474C67.9365 12.0486 67.9737 12.0505 67.999 12.053V12.5076C67.9838 12.5038 67.9491 12.4981 67.8948 12.4905C67.8418 12.4817 67.7856 12.4773 67.7263 12.4773C67.5848 12.4773 67.4586 12.507 67.3475 12.5663C67.2376 12.6244 67.1505 12.7052 67.0861 12.8087C67.023 12.911 66.9914 13.0278 66.9914 13.1591V15H66.5444ZM69.6145 16.1515C69.3986 16.1515 69.213 16.1237 69.0577 16.0682C68.9024 16.0139 68.773 15.9419 68.6694 15.8523C68.5672 15.7639 68.4857 15.6692 68.4251 15.5682L68.7812 15.3182C68.8216 15.3712 68.8727 15.4318 68.9346 15.5C68.9965 15.5694 69.081 15.6294 69.1884 15.6799C69.297 15.7317 69.439 15.7576 69.6145 15.7576C69.8494 15.7576 70.0432 15.7008 70.1959 15.5871C70.3487 15.4735 70.4251 15.2955 70.4251 15.053V14.4621H70.3872C70.3544 14.5152 70.3077 14.5808 70.2471 14.6591C70.1877 14.7361 70.1019 14.8049 69.9895 14.8655C69.8784 14.9249 69.7281 14.9545 69.5387 14.9545C69.3039 14.9545 69.093 14.899 68.9062 14.7879C68.7206 14.6768 68.5735 14.5152 68.4649 14.303C68.3576 14.0909 68.3039 13.8333 68.3039 13.5303C68.3039 13.2323 68.3563 12.9729 68.4611 12.7519C68.5659 12.5297 68.7117 12.358 68.8986 12.2368C69.0855 12.1143 69.3014 12.053 69.5463 12.053C69.7357 12.053 69.886 12.0846 69.9971 12.1477C70.1095 12.2096 70.1953 12.2803 70.2547 12.3599C70.3153 12.4381 70.362 12.5025 70.3948 12.553H70.4403V12.0909H70.8721V15.0833C70.8721 15.3333 70.8153 15.5366 70.7016 15.6932C70.5892 15.851 70.4377 15.9665 70.2471 16.0398C70.0577 16.1143 69.8468 16.1515 69.6145 16.1515ZM69.5994 14.553C69.7786 14.553 69.9302 14.512 70.0539 14.4299C70.1776 14.3479 70.2717 14.2298 70.3361 14.0758C70.4005 13.9217 70.4327 13.7374 70.4327 13.5227C70.4327 13.3131 70.4011 13.1282 70.338 12.9678C70.2749 12.8075 70.1814 12.6818 70.0577 12.5909C69.9339 12.5 69.7812 12.4546 69.5994 12.4546C69.41 12.4546 69.2521 12.5025 69.1259 12.5985C69.0009 12.6945 68.9068 12.8232 68.8437 12.9849C68.7818 13.1465 68.7509 13.3258 68.7509 13.5227C68.7509 13.7248 68.7824 13.9034 68.8456 14.0587C68.91 14.2128 69.0047 14.334 69.1297 14.4224C69.2559 14.5095 69.4125 14.553 69.5994 14.553ZM71.6902 15V12.0909H72.1372V15H71.6902ZM71.9175 11.6061C71.8304 11.6061 71.7553 11.5764 71.6921 11.5171C71.6303 11.4577 71.5993 11.3864 71.5993 11.3031C71.5993 11.2197 71.6303 11.1484 71.6921 11.089C71.7553 11.0297 71.8304 11 71.9175 11C72.0046 11 72.0791 11.0297 72.141 11.089C72.2041 11.1484 72.2357 11.2197 72.2357 11.3031C72.2357 11.3864 72.2041 11.4577 72.141 11.5171C72.0791 11.5764 72.0046 11.6061 71.9175 11.6061ZM73.4028 13.25V15H72.9559V12.0909H73.3877V12.5455H73.4256C73.4937 12.3977 73.5973 12.2791 73.7362 12.1894C73.8751 12.0985 74.0543 12.053 74.274 12.053C74.471 12.053 74.6434 12.0935 74.7911 12.1743C74.9388 12.2538 75.0537 12.375 75.1358 12.5379C75.2178 12.6995 75.2589 12.9041 75.2589 13.1515V15H74.8119V13.1818C74.8119 12.9533 74.7526 12.7753 74.6339 12.6477C74.5152 12.519 74.3523 12.4546 74.1453 12.4546C74.0026 12.4546 73.8751 12.4855 73.7627 12.5474C73.6516 12.6092 73.5638 12.6995 73.4994 12.8182C73.435 12.9369 73.4028 13.0808 73.4028 13.25ZM77.2499 16.1515C77.034 16.1515 76.8484 16.1237 76.6931 16.0682C76.5378 16.0139 76.4083 15.9419 76.3048 15.8523C76.2025 15.7639 76.1211 15.6692 76.0605 15.5682L76.4165 15.3182C76.4569 15.3712 76.5081 15.4318 76.57 15.5C76.6318 15.5694 76.7164 15.6294 76.8237 15.6799C76.9323 15.7317 77.0744 15.7576 77.2499 15.7576C77.4847 15.7576 77.6785 15.7008 77.8313 15.5871C77.9841 15.4735 78.0605 15.2955 78.0605 15.053V14.4621H78.0226C77.9898 14.5152 77.9431 14.5808 77.8824 14.6591C77.8231 14.7361 77.7372 14.8049 77.6249 14.8655C77.5138 14.9249 77.3635 14.9545 77.1741 14.9545C76.9393 14.9545 76.7284 14.899 76.5415 14.7879C76.3559 14.6768 76.2088 14.5152 76.1003 14.303C75.9929 14.0909 75.9393 13.8333 75.9393 13.5303C75.9393 13.2323 75.9917 12.9729 76.0965 12.7519C76.2013 12.5297 76.3471 12.358 76.534 12.2368C76.7208 12.1143 76.9367 12.053 77.1817 12.053C77.3711 12.053 77.5213 12.0846 77.6324 12.1477C77.7448 12.2096 77.8307 12.2803 77.89 12.3599C77.9506 12.4381 77.9973 12.5025 78.0302 12.553H78.0756V12.0909H78.5074V15.0833C78.5074 15.3333 78.4506 15.5366 78.337 15.6932C78.2246 15.851 78.0731 15.9665 77.8824 16.0398C77.6931 16.1143 77.4822 16.1515 77.2499 16.1515ZM77.2347 14.553C77.414 14.553 77.5655 14.512 77.6893 14.4299C77.813 14.3479 77.9071 14.2298 77.9715 14.0758C78.0359 13.9217 78.068 13.7374 78.068 13.5227C78.068 13.3131 78.0365 13.1282 77.9734 12.9678C77.9102 12.8075 77.8168 12.6818 77.6931 12.5909C77.5693 12.5 77.4165 12.4546 77.2347 12.4546C77.0453 12.4546 76.8875 12.5025 76.7612 12.5985C76.6362 12.6945 76.5422 12.8232 76.479 12.9849C76.4172 13.1465 76.3862 13.3258 76.3862 13.5227C76.3862 13.7248 76.4178 13.9034 76.4809 14.0587C76.5453 14.2128 76.64 14.334 76.765 14.4224C76.8913 14.5095 77.0479 14.553 77.2347 14.553ZM82.8862 12.7424L82.4847 12.8561C82.4594 12.7892 82.4222 12.7241 82.3729 12.661C82.325 12.5966 82.2593 12.5436 82.176 12.5019C82.0926 12.4602 81.986 12.4394 81.8559 12.4394C81.6779 12.4394 81.5295 12.4804 81.4108 12.5625C81.2934 12.6433 81.2347 12.7462 81.2347 12.8712C81.2347 12.9823 81.2751 13.0701 81.3559 13.1345C81.4367 13.1989 81.563 13.2525 81.7347 13.2955L82.1665 13.4015C82.4266 13.4647 82.6204 13.5612 82.7479 13.6913C82.8755 13.8201 82.9392 13.9861 82.9392 14.1894C82.9392 14.3561 82.8913 14.5051 82.7953 14.6364C82.7006 14.7677 82.568 14.8712 82.3976 14.947C82.2271 15.0227 82.0289 15.0606 81.8029 15.0606C81.5062 15.0606 81.2606 14.9962 81.0661 14.8674C80.8717 14.7386 80.7486 14.5505 80.6968 14.303L81.1211 14.197C81.1615 14.3535 81.2379 14.471 81.3502 14.5492C81.4639 14.6275 81.6122 14.6667 81.7953 14.6667C82.0036 14.6667 82.169 14.6225 82.2915 14.5341C82.4152 14.4444 82.4771 14.3371 82.4771 14.2121C82.4771 14.1111 82.4418 14.0265 82.3711 13.9583C82.3003 13.8889 82.1918 13.8371 82.0453 13.803L81.5605 13.6894C81.294 13.6263 81.0983 13.5284 80.9733 13.3958C80.8496 13.262 80.7877 13.0947 80.7877 12.894C80.7877 12.7298 80.8338 12.5846 80.926 12.4583C81.0194 12.3321 81.1463 12.233 81.3067 12.161C81.4683 12.089 81.6514 12.053 81.8559 12.053C82.1438 12.053 82.3698 12.1162 82.5339 12.2424C82.6993 12.3687 82.8168 12.5354 82.8862 12.7424ZM84.8772 12.0909V12.4697H83.3696V12.0909H84.8772ZM83.809 11.394H84.256V14.1667C84.256 14.2929 84.2743 14.3876 84.3109 14.4508C84.3488 14.5126 84.3968 14.5543 84.4548 14.5758C84.5142 14.596 84.5767 14.6061 84.6423 14.6061C84.6916 14.6061 84.732 14.6035 84.7636 14.5985C84.7951 14.5922 84.8204 14.5871 84.8393 14.5833L84.9302 14.9848C84.8999 14.9962 84.8576 15.0076 84.8033 15.0189C84.749 15.0316 84.6802 15.0379 84.5969 15.0379C84.4706 15.0379 84.3469 15.0107 84.2257 14.9564C84.1057 14.9021 84.006 14.8194 83.9264 14.7083C83.8482 14.5972 83.809 14.4571 83.809 14.2879V11.394ZM86.4056 15.0682C86.2213 15.0682 86.054 15.0335 85.9037 14.964C85.7535 14.8933 85.6341 14.7917 85.5458 14.6591C85.4574 14.5253 85.4132 14.3636 85.4132 14.1742C85.4132 14.0076 85.446 13.8725 85.5117 13.7689C85.5773 13.6641 85.6651 13.5821 85.7749 13.5227C85.8848 13.4634 86.006 13.4192 86.1385 13.3902C86.2724 13.3599 86.4069 13.3359 86.542 13.3182C86.7187 13.2955 86.862 13.2784 86.9719 13.2671C87.083 13.2544 87.1638 13.2336 87.2143 13.2046C87.2661 13.1755 87.292 13.125 87.292 13.053V13.0379C87.292 12.851 87.2408 12.7058 87.1385 12.6023C87.0375 12.4988 86.8841 12.447 86.6783 12.447C86.4649 12.447 86.2976 12.4937 86.1764 12.5871C86.0552 12.6806 85.97 12.7803 85.9207 12.8864L85.4965 12.7349C85.5723 12.5581 85.6733 12.4205 85.7995 12.322C85.9271 12.2222 86.0659 12.1528 86.2162 12.1137C86.3677 12.0733 86.5167 12.053 86.6632 12.053C86.7566 12.053 86.8639 12.0644 86.9851 12.0871C87.1076 12.1086 87.2257 12.1534 87.3393 12.2216C87.4542 12.2898 87.5495 12.3927 87.6253 12.5303C87.701 12.6679 87.7389 12.8523 87.7389 13.0833V15H87.292V14.6061H87.2692C87.2389 14.6692 87.1884 14.7367 87.1177 14.8087C87.047 14.8807 86.9529 14.9419 86.8355 14.9924C86.7181 15.0429 86.5748 15.0682 86.4056 15.0682ZM86.4738 14.6667C86.6505 14.6667 86.7995 14.6319 86.9207 14.5625C87.0432 14.4931 87.1354 14.4034 87.1973 14.2936C87.2604 14.1837 87.292 14.0682 87.292 13.947V13.5379C87.273 13.5606 87.2313 13.5814 87.167 13.6004C87.1038 13.6181 87.0306 13.6338 86.9473 13.6477C86.8652 13.6604 86.785 13.6717 86.7067 13.6818C86.6297 13.6907 86.5672 13.6982 86.5192 13.7046C86.4031 13.7197 86.2945 13.7443 86.1935 13.7784C86.0937 13.8112 86.0129 13.8611 85.9511 13.928C85.8904 13.9937 85.8601 14.0833 85.8601 14.197C85.8601 14.3523 85.9176 14.4697 86.0325 14.5492C86.1487 14.6275 86.2957 14.6667 86.4738 14.6667ZM89.8199 12.0909V12.4697H88.3123V12.0909H89.8199ZM88.7517 11.394H89.1987V14.1667C89.1987 14.2929 89.217 14.3876 89.2536 14.4508C89.2915 14.5126 89.3394 14.5543 89.3975 14.5758C89.4569 14.596 89.5194 14.6061 89.585 14.6061C89.6343 14.6061 89.6747 14.6035 89.7062 14.5985C89.7378 14.5922 89.7631 14.5871 89.782 14.5833L89.8729 14.9848C89.8426 14.9962 89.8003 15.0076 89.746 15.0189C89.6917 15.0316 89.6229 15.0379 89.5396 15.0379C89.4133 15.0379 89.2896 15.0107 89.1684 14.9564C89.0484 14.9021 88.9487 14.8194 88.8691 14.7083C88.7908 14.5972 88.7517 14.4571 88.7517 14.2879V11.394ZM90.4922 15V12.0909H90.9392V15H90.4922ZM90.7195 11.6061C90.6324 11.6061 90.5572 11.5764 90.4941 11.5171C90.4322 11.4577 90.4013 11.3864 90.4013 11.3031C90.4013 11.2197 90.4322 11.1484 90.4941 11.089C90.5572 11.0297 90.6324 11 90.7195 11C90.8066 11 90.8811 11.0297 90.943 11.089C91.0061 11.1484 91.0377 11.2197 91.0377 11.3031C91.0377 11.3864 91.0061 11.4577 90.943 11.5171C90.8811 11.5764 90.8066 11.6061 90.7195 11.6061ZM92.9396 15.0606C92.677 15.0606 92.4466 14.9981 92.2484 14.8731C92.0514 14.7481 91.8974 14.5732 91.7862 14.3485C91.6764 14.1237 91.6215 13.8611 91.6215 13.5606C91.6215 13.2576 91.6764 12.9931 91.7862 12.7671C91.8974 12.5411 92.0514 12.3655 92.2484 12.2405C92.4466 12.1155 92.677 12.053 92.9396 12.053C93.2023 12.053 93.4321 12.1155 93.629 12.2405C93.8273 12.3655 93.9813 12.5411 94.0912 12.7671C94.2023 12.9931 94.2578 13.2576 94.2578 13.5606C94.2578 13.8611 94.2023 14.1237 94.0912 14.3485C93.9813 14.5732 93.8273 14.7481 93.629 14.8731C93.4321 14.9981 93.2023 15.0606 92.9396 15.0606ZM92.9396 14.6591C93.1391 14.6591 93.3033 14.608 93.4321 14.5057C93.5609 14.4034 93.6562 14.2689 93.718 14.1023C93.7799 13.9356 93.8108 13.7551 93.8108 13.5606C93.8108 13.3662 93.7799 13.185 93.718 13.0171C93.6562 12.8491 93.5609 12.7134 93.4321 12.6099C93.3033 12.5063 93.1391 12.4546 92.9396 12.4546C92.7401 12.4546 92.576 12.5063 92.4472 12.6099C92.3184 12.7134 92.2231 12.8491 92.1612 13.0171C92.0994 13.185 92.0684 13.3662 92.0684 13.5606C92.0684 13.7551 92.0994 13.9356 92.1612 14.1023C92.2231 14.2689 92.3184 14.4034 92.4472 14.5057C92.576 14.608 92.7401 14.6591 92.9396 14.6591ZM95.3871 13.25V15H94.9401V12.0909H95.3719V12.5455H95.4098C95.478 12.3977 95.5815 12.2791 95.7204 12.1894C95.8593 12.0985 96.0386 12.053 96.2583 12.053C96.4552 12.053 96.6276 12.0935 96.7753 12.1743C96.923 12.2538 97.0379 12.375 97.12 12.5379C97.2021 12.6995 97.2431 12.9041 97.2431 13.1515V15H96.7962V13.1818C96.7962 12.9533 96.7368 12.7753 96.6181 12.6477C96.4994 12.519 96.3366 12.4546 96.1295 12.4546C95.9868 12.4546 95.8593 12.4855 95.7469 12.5474C95.6358 12.6092 95.5481 12.6995 95.4837 12.8182C95.4193 12.9369 95.3871 13.0808 95.3871 13.25Z" fill="#880088"/>
<path d="M135 71L133.506 65.4232L129.423 69.5057L135 71ZM126.646 63.3536L131.464 68.1716L132.172 67.4645L127.354 62.6464L126.646 63.3536Z" fill="#0000FF"/>
<path d="M142 71L144.887 66L139.113 66L142 71ZM141.5 53L141.5 66.5L142.5 66.5L142.5 53L141.5 53Z" fill="#80A829"/>
<path d="M154 70L157.735 65.5971L152.054 64.5643L154 70ZM159.508 36.9106L154.313 65.4831L155.297 65.662L160.492 37.0894L159.508 36.9106Z" fill="#888800"/>
</svg>
