<svg width="181" height="73" viewBox="0 0 181 73" fill="none" xmlns="http://www.w3.org/2000/svg">
<path d="M166.163 12.9737C165.195 12.9726 164.248 13.2638 163.448 13.8092C163.256 12.9232 162.818 12.1092 162.185 11.4601C161.552 10.811 160.749 10.3528 159.868 10.1379C158.988 9.92295 158.064 9.9599 157.203 10.2445C156.343 10.5291 155.579 11.0499 155 11.7476C154.365 10.9826 153.509 10.432 152.549 10.1708C151.59 9.90964 150.573 9.95052 149.638 10.2879C148.703 10.6253 147.894 11.2428 147.322 12.0563C146.75 12.8699 146.443 13.8399 146.442 14.8344V18.9278H143.837C142.554 18.9278 141.324 19.4375 140.417 20.3448C139.51 21.252 139 22.4825 139 23.7655V25.9983C139 30.2422 140.686 34.3123 143.686 37.3132C146.687 40.3141 150.757 42 155 42C159.243 42 163.313 40.3141 166.314 37.3132C169.314 34.3123 171 30.2422 171 25.9983V17.8114C171 17.1761 170.875 16.5471 170.632 15.9601C170.389 15.3732 170.032 14.8399 169.583 14.3907C169.134 13.9414 168.601 13.5851 168.014 13.342C167.427 13.0989 166.798 12.9737 166.163 12.9737ZM168.767 25.9983C168.767 29.6501 167.317 33.1522 164.735 35.7344C162.153 38.3166 158.651 39.7672 155 39.7672C151.349 39.7672 147.847 38.3166 145.265 35.7344C142.683 33.1522 141.233 29.6501 141.233 25.9983V23.7655C141.233 23.0747 141.507 22.4121 141.995 21.9236C142.484 21.4351 143.146 21.1606 143.837 21.1606H146.442V25.9983C146.442 26.2944 146.559 26.5784 146.769 26.7877C146.978 26.9971 147.262 27.1147 147.558 27.1147C147.854 27.1147 148.138 26.9971 148.347 26.7877C148.557 26.5784 148.674 26.2944 148.674 25.9983V14.8344C148.674 14.1435 148.949 13.4809 149.437 12.9924C149.926 12.5039 150.588 12.2295 151.279 12.2295C151.97 12.2295 152.632 12.5039 153.121 12.9924C153.609 13.4809 153.884 14.1435 153.884 14.8344V20.0442C153.884 20.3403 154.001 20.6243 154.211 20.8336C154.42 21.043 154.704 21.1606 155 21.1606C155.296 21.1606 155.58 21.043 155.789 20.8336C155.999 20.6243 156.116 20.3403 156.116 20.0442V14.8344C156.116 14.1435 156.391 13.4809 156.879 12.9924C157.368 12.5039 158.03 12.2295 158.721 12.2295C159.412 12.2295 160.074 12.5039 160.563 12.9924C161.051 13.4809 161.326 14.1435 161.326 14.8344V20.0442C161.326 20.3403 161.443 20.6243 161.653 20.8336C161.862 21.043 162.146 21.1606 162.442 21.1606C162.738 21.1606 163.022 21.043 163.231 20.8336C163.441 20.6243 163.558 20.3403 163.558 20.0442V17.8114C163.558 17.1206 163.833 16.458 164.321 15.9695C164.809 15.481 165.472 15.2065 166.163 15.2065C166.854 15.2065 167.516 15.481 168.005 15.9695C168.493 16.458 168.767 17.1206 168.767 17.8114V25.9983Z" fill="white"/>
<path d="M15.0128 62.9082C14.2554 62.9082 13.5994 62.7642 13.0448 62.4762C12.5008 62.1776 12.0794 61.7562 11.7808 61.2122C11.4821 60.6576 11.3221 59.9962 11.3008 59.2282C11.2901 59.0682 11.2848 58.8549 11.2848 58.5882C11.2848 58.3216 11.2901 58.1082 11.3008 57.9482C11.3221 57.1802 11.4821 56.5242 11.7808 55.9802C12.0794 55.4256 12.5008 55.0042 13.0448 54.7162C13.5994 54.4176 14.2554 54.2682 15.0128 54.2682C15.6314 54.2682 16.1594 54.3536 16.5968 54.5242C17.0448 54.6949 17.4128 54.9136 17.7008 55.1802C17.9888 55.4469 18.2021 55.7349 18.3408 56.0442C18.4901 56.3536 18.5701 56.6469 18.5808 56.9242C18.5914 57.0309 18.5594 57.1162 18.4848 57.1802C18.4101 57.2442 18.3194 57.2762 18.2128 57.2762H17.4448C17.3381 57.2762 17.2581 57.2549 17.2048 57.2122C17.1514 57.1589 17.0981 57.0736 17.0448 56.9562C16.8528 56.4336 16.5914 56.0656 16.2608 55.8522C15.9301 55.6389 15.5194 55.5322 15.0288 55.5322C14.3888 55.5322 13.8661 55.7296 13.4608 56.1242C13.0661 56.5189 12.8528 57.1536 12.8207 58.0282C12.8101 58.4122 12.8101 58.7856 12.8207 59.1482C12.8528 60.0336 13.0661 60.6736 13.4608 61.0682C13.8661 61.4522 14.3888 61.6442 15.0288 61.6442C15.5194 61.6442 15.9301 61.5376 16.2608 61.3242C16.5914 61.1109 16.8528 60.7429 17.0448 60.2202C17.0981 60.1029 17.1514 60.0229 17.2048 59.9802C17.2581 59.9269 17.3381 59.9002 17.4448 59.9002H18.2128C18.3194 59.9002 18.4101 59.9322 18.4848 59.9962C18.5594 60.0602 18.5914 60.1456 18.5808 60.2522C18.5701 60.4762 18.5221 60.7056 18.4368 60.9402C18.3514 61.1749 18.2128 61.4149 18.0208 61.6602C17.8394 61.8949 17.6101 62.1082 17.3328 62.3002C17.0554 62.4816 16.7194 62.6309 16.3248 62.7482C15.9408 62.8549 15.5034 62.9082 15.0128 62.9082ZM20.8649 62.7482C20.7582 62.7482 20.6675 62.7162 20.5929 62.6522C20.5289 62.5776 20.4969 62.4869 20.4969 62.3802V51.7562C20.4969 51.6496 20.5289 51.5642 20.5929 51.5002C20.6675 51.4256 20.7582 51.3882 20.8649 51.3882H21.6169C21.7342 51.3882 21.8249 51.4256 21.8889 51.5002C21.9529 51.5642 21.9849 51.6496 21.9849 51.7562V62.3802C21.9849 62.4869 21.9529 62.5776 21.8889 62.6522C21.8249 62.7162 21.7342 62.7482 21.6169 62.7482H20.8649ZM24.7395 62.7482C24.6328 62.7482 24.5422 62.7162 24.4675 62.6522C24.4035 62.5776 24.3715 62.4869 24.3715 62.3802V54.7962C24.3715 54.6896 24.4035 54.6042 24.4675 54.5402C24.5422 54.4656 24.6328 54.4282 24.7395 54.4282H25.5075C25.6142 54.4282 25.6995 54.4656 25.7635 54.5402C25.8275 54.6042 25.8595 54.6896 25.8595 54.7962V62.3802C25.8595 62.4869 25.8275 62.5776 25.7635 62.6522C25.6995 62.7162 25.6142 62.7482 25.5075 62.7482H24.7395ZM24.6115 52.8762C24.5048 52.8762 24.4142 52.8442 24.3395 52.7802C24.2755 52.7056 24.2435 52.6149 24.2435 52.5082V51.6442C24.2435 51.5376 24.2755 51.4522 24.3395 51.3882C24.4142 51.3136 24.5048 51.2762 24.6115 51.2762H25.6195C25.7262 51.2762 25.8115 51.3136 25.8755 51.3882C25.9502 51.4522 25.9875 51.5376 25.9875 51.6442V52.5082C25.9875 52.6149 25.9502 52.7056 25.8755 52.7802C25.8115 52.8442 25.7262 52.8762 25.6195 52.8762H24.6115ZM31.6065 62.9082C30.8492 62.9082 30.1932 62.7642 29.6385 62.4762C29.0945 62.1776 28.6732 61.7562 28.3745 61.2122C28.0758 60.6576 27.9158 59.9962 27.8945 59.2282C27.8838 59.0682 27.8785 58.8549 27.8785 58.5882C27.8785 58.3216 27.8838 58.1082 27.8945 57.9482C27.9158 57.1802 28.0758 56.5242 28.3745 55.9802C28.6732 55.4256 29.0945 55.0042 29.6385 54.7162C30.1932 54.4176 30.8492 54.2682 31.6065 54.2682C32.2252 54.2682 32.7532 54.3536 33.1905 54.5242C33.6385 54.6949 34.0065 54.9136 34.2945 55.1802C34.5825 55.4469 34.7958 55.7349 34.9345 56.0442C35.0838 56.3536 35.1638 56.6469 35.1745 56.9242C35.1852 57.0309 35.1532 57.1162 35.0785 57.1802C35.0038 57.2442 34.9132 57.2762 34.8065 57.2762H34.0385C33.9318 57.2762 33.8518 57.2549 33.7985 57.2122C33.7452 57.1589 33.6918 57.0736 33.6385 56.9562C33.4465 56.4336 33.1852 56.0656 32.8545 55.8522C32.5238 55.6389 32.1132 55.5322 31.6225 55.5322C30.9825 55.5322 30.4598 55.7296 30.0545 56.1242C29.6598 56.5189 29.4465 57.1536 29.4145 58.0282C29.4038 58.4122 29.4038 58.7856 29.4145 59.1482C29.4465 60.0336 29.6598 60.6736 30.0545 61.0682C30.4598 61.4522 30.9825 61.6442 31.6225 61.6442C32.1132 61.6442 32.5238 61.5376 32.8545 61.3242C33.1852 61.1109 33.4465 60.7429 33.6385 60.2202C33.6918 60.1029 33.7452 60.0229 33.7985 59.9802C33.8518 59.9269 33.9318 59.9002 34.0385 59.9002H34.8065C34.9132 59.9002 35.0038 59.9322 35.0785 59.9962C35.1532 60.0602 35.1852 60.1456 35.1745 60.2522C35.1638 60.4762 35.1158 60.7056 35.0305 60.9402C34.9452 61.1749 34.8065 61.4149 34.6145 61.6602C34.4332 61.8949 34.2038 62.1082 33.9265 62.3002C33.6492 62.4816 33.3132 62.6309 32.9185 62.7482C32.5345 62.8549 32.0972 62.9082 31.6065 62.9082ZM37.4586 62.7482C37.352 62.7482 37.2613 62.7162 37.1866 62.6522C37.1226 62.5776 37.0906 62.4869 37.0906 62.3802V51.7562C37.0906 51.6496 37.1226 51.5642 37.1866 51.5002C37.2613 51.4256 37.352 51.3882 37.4586 51.3882H38.2106C38.3173 51.3882 38.4026 51.4256 38.4666 51.5002C38.5413 51.5642 38.5786 51.6496 38.5786 51.7562V57.3242L41.7306 54.7002C41.8586 54.5936 41.9546 54.5242 42.0186 54.4922C42.0933 54.4496 42.2106 54.4282 42.3706 54.4282H43.2186C43.3146 54.4282 43.3946 54.4602 43.4586 54.5242C43.5226 54.5882 43.5546 54.6682 43.5546 54.7642C43.5546 54.8069 43.5386 54.8549 43.5066 54.9082C43.4853 54.9616 43.4373 55.0149 43.3626 55.0682L39.6666 58.1402L43.7626 62.1242C43.8906 62.2309 43.9546 62.3269 43.9546 62.4122C43.9546 62.5082 43.9226 62.5882 43.8586 62.6522C43.7946 62.7162 43.7146 62.7482 43.6186 62.7482H42.7866C42.6266 62.7482 42.5093 62.7322 42.4346 62.7002C42.36 62.6576 42.264 62.5829 42.1466 62.4762L38.5786 59.0682V62.3802C38.5786 62.4869 38.5413 62.5776 38.4666 62.6522C38.4026 62.7162 38.3173 62.7482 38.2106 62.7482H37.4586ZM51.4103 62.9082C50.8769 62.9082 50.3916 62.8016 49.9543 62.5882C49.5169 62.3749 49.1649 62.0869 48.8983 61.7242C48.6316 61.3616 48.4983 60.9509 48.4983 60.4922C48.4983 59.7562 48.7969 59.1696 49.3943 58.7322C49.9916 58.2949 50.7703 58.0069 51.7303 57.8682L54.1143 57.5322V57.0682C54.1143 56.5562 53.9649 56.1562 53.6663 55.8682C53.3783 55.5802 52.9036 55.4362 52.2423 55.4362C51.7623 55.4362 51.3729 55.5322 51.0743 55.7242C50.7863 55.9162 50.5836 56.1616 50.4663 56.4602C50.4023 56.6202 50.2903 56.7002 50.1303 56.7002H49.4103C49.2929 56.7002 49.2023 56.6682 49.1383 56.6042C49.0849 56.5296 49.0583 56.4442 49.0583 56.3482C49.0583 56.1882 49.1169 55.9909 49.2343 55.7562C49.3623 55.5216 49.5543 55.2922 49.8103 55.0682C50.0663 54.8442 50.3916 54.6576 50.7863 54.5082C51.1916 54.3482 51.6823 54.2682 52.2583 54.2682C52.8983 54.2682 53.4369 54.3536 53.8743 54.5242C54.3116 54.6842 54.6529 54.9029 54.8983 55.1802C55.1543 55.4576 55.3356 55.7722 55.4423 56.1242C55.5596 56.4762 55.6183 56.8336 55.6183 57.1962V62.3802C55.6183 62.4869 55.5809 62.5776 55.5063 62.6522C55.4423 62.7162 55.3569 62.7482 55.2503 62.7482H54.5143C54.3969 62.7482 54.3063 62.7162 54.2423 62.6522C54.1783 62.5776 54.1463 62.4869 54.1463 62.3802V61.6922C54.0076 61.8842 53.8209 62.0762 53.5863 62.2682C53.3516 62.4496 53.0583 62.6042 52.7063 62.7322C52.3543 62.8496 51.9223 62.9082 51.4103 62.9082ZM51.7463 61.7082C52.1836 61.7082 52.5836 61.6176 52.9463 61.4362C53.3089 61.2442 53.5916 60.9509 53.7943 60.5562C54.0076 60.1616 54.1143 59.6656 54.1143 59.0682V58.6202L52.2583 58.8922C51.5009 58.9989 50.9303 59.1802 50.5463 59.4362C50.1623 59.6816 49.9703 59.9962 49.9703 60.3802C49.9703 60.6789 50.0556 60.9296 50.2263 61.1322C50.4076 61.3242 50.6316 61.4682 50.8983 61.5642C51.1756 61.6602 51.4583 61.7082 51.7463 61.7082ZM58.2864 62.7482C58.1797 62.7482 58.089 62.7162 58.0144 62.6522C57.9504 62.5776 57.9184 62.4869 57.9184 62.3802V54.7962C57.9184 54.6896 57.9504 54.6042 58.0144 54.5402C58.089 54.4656 58.1797 54.4282 58.2864 54.4282H59.0384C59.145 54.4282 59.2304 54.4656 59.2944 54.5402C59.369 54.6042 59.4064 54.6896 59.4064 54.7962V55.5002C59.6837 55.1376 60.0304 54.8442 60.4464 54.6202C60.873 54.3856 61.417 54.2682 62.0784 54.2682C62.7717 54.2682 63.3584 54.4229 63.8384 54.7322C64.329 55.0309 64.697 55.4522 64.9424 55.9962C65.1877 56.5296 65.3104 57.1536 65.3104 57.8682V62.3802C65.3104 62.4869 65.2784 62.5776 65.2144 62.6522C65.1504 62.7162 65.065 62.7482 64.9584 62.7482H64.1584C64.0517 62.7482 63.961 62.7162 63.8864 62.6522C63.8224 62.5776 63.7904 62.4869 63.7904 62.3802V57.9482C63.7904 57.2016 63.609 56.6202 63.2464 56.2042C62.8837 55.7776 62.3504 55.5642 61.6464 55.5642C60.985 55.5642 60.4517 55.7776 60.0464 56.2042C59.6517 56.6202 59.4544 57.2016 59.4544 57.9482V62.3802C59.4544 62.4869 59.417 62.5776 59.3424 62.6522C59.2784 62.7162 59.193 62.7482 59.0864 62.7482H58.2864ZM70.6615 62.9082C70.0748 62.9082 69.5682 62.8069 69.1415 62.6042C68.7148 62.3909 68.3628 62.1082 68.0855 61.7562C67.8188 61.3936 67.6162 60.9829 67.4775 60.5242C67.3495 60.0656 67.2748 59.5802 67.2535 59.0682C67.2428 58.8976 67.2375 58.7376 67.2375 58.5882C67.2375 58.4389 67.2428 58.2789 67.2535 58.1082C67.2748 57.6069 67.3495 57.1269 67.4775 56.6682C67.6162 56.2096 67.8188 55.7989 68.0855 55.4362C68.3628 55.0736 68.7148 54.7909 69.1415 54.5882C69.5682 54.3749 70.0748 54.2682 70.6615 54.2682C71.2908 54.2682 71.8135 54.3802 72.2295 54.6042C72.6455 54.8282 72.9868 55.1056 73.2535 55.4362V51.7562C73.2535 51.6496 73.2855 51.5642 73.3495 51.5002C73.4242 51.4256 73.5148 51.3882 73.6215 51.3882H74.3895C74.4962 51.3882 74.5815 51.4256 74.6455 51.5002C74.7202 51.5642 74.7575 51.6496 74.7575 51.7562V62.3802C74.7575 62.4869 74.7202 62.5776 74.6455 62.6522C74.5815 62.7162 74.4962 62.7482 74.3895 62.7482H73.6695C73.5522 62.7482 73.4615 62.7162 73.3975 62.6522C73.3335 62.5776 73.3015 62.4869 73.3015 62.3802V61.7082C73.0348 62.0496 72.6882 62.3376 72.2615 62.5722C71.8348 62.7962 71.3015 62.9082 70.6615 62.9082ZM70.9975 61.6122C71.5308 61.6122 71.9575 61.4896 72.2775 61.2442C72.5975 60.9989 72.8375 60.6896 72.9975 60.3162C73.1575 59.9322 73.2428 59.5429 73.2535 59.1482C73.2642 58.9776 73.2695 58.7749 73.2695 58.5402C73.2695 58.2949 73.2642 58.0869 73.2535 57.9162C73.2428 57.5429 73.1522 57.1749 72.9815 56.8122C72.8215 56.4496 72.5762 56.1509 72.2455 55.9162C71.9255 55.6816 71.5095 55.5642 70.9975 55.5642C70.4535 55.5642 70.0215 55.6869 69.7015 55.9322C69.3815 56.1669 69.1522 56.4816 69.0135 56.8762C68.8748 57.2602 68.7948 57.6762 68.7735 58.1242C68.7628 58.4336 68.7628 58.7429 68.7735 59.0522C68.7948 59.5002 68.8748 59.9216 69.0135 60.3162C69.1522 60.7002 69.3815 61.0149 69.7015 61.2602C70.0215 61.4949 70.4535 61.6122 70.9975 61.6122ZM84.099 62.9082C83.5123 62.9082 83.0057 62.8069 82.579 62.6042C82.1523 62.3909 81.8003 62.1082 81.523 61.7562C81.2563 61.3936 81.0537 60.9829 80.915 60.5242C80.787 60.0656 80.7123 59.5802 80.691 59.0682C80.6803 58.8976 80.675 58.7376 80.675 58.5882C80.675 58.4389 80.6803 58.2789 80.691 58.1082C80.7123 57.6069 80.787 57.1269 80.915 56.6682C81.0537 56.2096 81.2563 55.7989 81.523 55.4362C81.8003 55.0736 82.1523 54.7909 82.579 54.5882C83.0057 54.3749 83.5123 54.2682 84.099 54.2682C84.7283 54.2682 85.251 54.3802 85.667 54.6042C86.083 54.8282 86.4243 55.1056 86.691 55.4362V51.7562C86.691 51.6496 86.723 51.5642 86.787 51.5002C86.8617 51.4256 86.9523 51.3882 87.059 51.3882H87.827C87.9337 51.3882 88.019 51.4256 88.083 51.5002C88.1577 51.5642 88.195 51.6496 88.195 51.7562V62.3802C88.195 62.4869 88.1577 62.5776 88.083 62.6522C88.019 62.7162 87.9337 62.7482 87.827 62.7482H87.107C86.9897 62.7482 86.899 62.7162 86.835 62.6522C86.771 62.5776 86.739 62.4869 86.739 62.3802V61.7082C86.4723 62.0496 86.1257 62.3376 85.699 62.5722C85.2723 62.7962 84.739 62.9082 84.099 62.9082ZM84.435 61.6122C84.9683 61.6122 85.395 61.4896 85.715 61.2442C86.035 60.9989 86.275 60.6896 86.435 60.3162C86.595 59.9322 86.6803 59.5429 86.691 59.1482C86.7017 58.9776 86.707 58.7749 86.707 58.5402C86.707 58.2949 86.7017 58.0869 86.691 57.9162C86.6803 57.5429 86.5897 57.1749 86.419 56.8122C86.259 56.4496 86.0137 56.1509 85.683 55.9162C85.363 55.6816 84.947 55.5642 84.435 55.5642C83.891 55.5642 83.459 55.6869 83.139 55.9322C82.819 56.1669 82.5897 56.4816 82.451 56.8762C82.3123 57.2602 82.2323 57.6762 82.211 58.1242C82.2003 58.4336 82.2003 58.7429 82.211 59.0522C82.2323 59.5002 82.3123 59.9216 82.451 60.3162C82.5897 60.7002 82.819 61.0149 83.139 61.2602C83.459 61.4949 83.891 61.6122 84.435 61.6122ZM90.9426 62.7482C90.836 62.7482 90.7453 62.7162 90.6706 62.6522C90.6066 62.5776 90.5746 62.4869 90.5746 62.3802V54.8122C90.5746 54.7056 90.6066 54.6149 90.6706 54.5402C90.7453 54.4656 90.836 54.4282 90.9426 54.4282H91.6786C91.7853 54.4282 91.876 54.4656 91.9506 54.5402C92.0253 54.6149 92.0626 54.7056 92.0626 54.8122V55.5162C92.276 55.1536 92.5693 54.8816 92.9426 54.7002C93.316 54.5189 93.764 54.4282 94.2866 54.4282H94.9266C95.0333 54.4282 95.1186 54.4656 95.1826 54.5402C95.2466 54.6042 95.2786 54.6896 95.2786 54.7962V55.4522C95.2786 55.5589 95.2466 55.6442 95.1826 55.7082C95.1186 55.7722 95.0333 55.8042 94.9266 55.8042H93.9666C93.3906 55.8042 92.9373 55.9749 92.6066 56.3162C92.276 56.6469 92.1106 57.1002 92.1106 57.6762V62.3802C92.1106 62.4869 92.0733 62.5776 91.9986 62.6522C91.924 62.7162 91.8333 62.7482 91.7266 62.7482H90.9426ZM98.8478 62.9082C98.3144 62.9082 97.8291 62.8016 97.3918 62.5882C96.9544 62.3749 96.6024 62.0869 96.3358 61.7242C96.0691 61.3616 95.9358 60.9509 95.9358 60.4922C95.9358 59.7562 96.2344 59.1696 96.8318 58.7322C97.4291 58.2949 98.2078 58.0069 99.1678 57.8682L101.552 57.5322V57.0682C101.552 56.5562 101.402 56.1562 101.104 55.8682C100.816 55.5802 100.341 55.4362 99.6798 55.4362C99.1998 55.4362 98.8104 55.5322 98.5118 55.7242C98.2238 55.9162 98.0211 56.1616 97.9038 56.4602C97.8398 56.6202 97.7278 56.7002 97.5678 56.7002H96.8478C96.7304 56.7002 96.6398 56.6682 96.5758 56.6042C96.5224 56.5296 96.4958 56.4442 96.4958 56.3482C96.4958 56.1882 96.5544 55.9909 96.6718 55.7562C96.7998 55.5216 96.9918 55.2922 97.2478 55.0682C97.5038 54.8442 97.8291 54.6576 98.2238 54.5082C98.6291 54.3482 99.1198 54.2682 99.6958 54.2682C100.336 54.2682 100.874 54.3536 101.312 54.5242C101.749 54.6842 102.09 54.9029 102.336 55.1802C102.592 55.4576 102.773 55.7722 102.88 56.1242C102.997 56.4762 103.056 56.8336 103.056 57.1962V62.3802C103.056 62.4869 103.018 62.5776 102.944 62.6522C102.88 62.7162 102.794 62.7482 102.688 62.7482H101.952C101.834 62.7482 101.744 62.7162 101.68 62.6522C101.616 62.5776 101.584 62.4869 101.584 62.3802V61.6922C101.445 61.8842 101.258 62.0762 101.024 62.2682C100.789 62.4496 100.496 62.6042 100.144 62.7322C99.7918 62.8496 99.3598 62.9082 98.8478 62.9082ZM99.1838 61.7082C99.6211 61.7082 100.021 61.6176 100.384 61.4362C100.746 61.2442 101.029 60.9509 101.232 60.5562C101.445 60.1616 101.552 59.6656 101.552 59.0682V58.6202L99.6958 58.8922C98.9384 58.9989 98.3678 59.1802 97.9838 59.4362C97.5998 59.6816 97.4078 59.9962 97.4078 60.3802C97.4078 60.6789 97.4931 60.9296 97.6638 61.1322C97.8451 61.3242 98.0691 61.4682 98.3358 61.5642C98.6131 61.6602 98.8958 61.7082 99.1838 61.7082ZM108.764 66.2682C108.039 66.2682 107.441 66.1722 106.972 65.9802C106.513 65.7882 106.151 65.5536 105.884 65.2762C105.628 65.0096 105.441 64.7376 105.324 64.4602C105.217 64.1936 105.159 63.9802 105.148 63.8202C105.137 63.7136 105.169 63.6229 105.244 63.5482C105.329 63.4736 105.42 63.4362 105.516 63.4362H106.284C106.38 63.4362 106.46 63.4576 106.524 63.5002C106.588 63.5429 106.641 63.6336 106.684 63.7722C106.748 63.9322 106.844 64.1082 106.972 64.3002C107.1 64.5029 107.297 64.6736 107.564 64.8122C107.831 64.9616 108.204 65.0362 108.684 65.0362C109.185 65.0362 109.607 64.9669 109.948 64.8282C110.289 64.7002 110.545 64.4656 110.716 64.1242C110.897 63.7936 110.988 63.3349 110.988 62.7482V61.6602C110.732 61.9909 110.396 62.2682 109.98 62.4922C109.564 62.7056 109.041 62.8122 108.412 62.8122C107.815 62.8122 107.303 62.7109 106.876 62.5082C106.449 62.2949 106.097 62.0122 105.82 61.6602C105.553 61.2976 105.351 60.8869 105.212 60.4282C105.084 59.9696 105.009 59.4896 104.988 58.9882C104.977 58.6896 104.977 58.3962 104.988 58.1082C105.009 57.6069 105.084 57.1269 105.212 56.6682C105.351 56.2096 105.553 55.7989 105.82 55.4362C106.097 55.0736 106.449 54.7909 106.876 54.5882C107.303 54.3749 107.815 54.2682 108.412 54.2682C109.052 54.2682 109.58 54.3909 109.996 54.6362C110.423 54.8709 110.769 55.1589 111.036 55.5002V54.8122C111.036 54.7056 111.068 54.6149 111.132 54.5402C111.207 54.4656 111.297 54.4282 111.404 54.4282H112.14C112.247 54.4282 112.337 54.4656 112.412 54.5402C112.487 54.6149 112.524 54.7056 112.524 54.8122V62.5722C112.524 63.2869 112.401 63.9216 112.156 64.4762C111.921 65.0309 111.527 65.4682 110.972 65.7882C110.428 66.1082 109.692 66.2682 108.764 66.2682ZM108.732 61.5322C109.265 61.5322 109.692 61.4096 110.012 61.1642C110.343 60.9189 110.583 60.6096 110.732 60.2362C110.892 59.8629 110.977 59.4842 110.988 59.1002C110.999 58.9509 111.004 58.7696 111.004 58.5562C111.004 58.3322 110.999 58.1456 110.988 57.9962C110.977 57.6122 110.892 57.2336 110.732 56.8602C110.583 56.4869 110.343 56.1776 110.012 55.9322C109.692 55.6869 109.265 55.5642 108.732 55.5642C108.199 55.5642 107.772 55.6869 107.452 55.9322C107.132 56.1669 106.903 56.4816 106.764 56.8762C106.625 57.2602 106.545 57.6762 106.524 58.1242C106.513 58.4016 106.513 58.6842 106.524 58.9722C106.545 59.4202 106.625 59.8416 106.764 60.2362C106.903 60.6202 107.132 60.9349 107.452 61.1802C107.772 61.4149 108.199 61.5322 108.732 61.5322ZM121.729 62.7482C121.132 62.7482 120.646 62.6362 120.273 62.4122C119.9 62.1776 119.628 61.8522 119.457 61.4362C119.286 61.0096 119.201 60.5082 119.201 59.9322V55.7082H117.953C117.846 55.7082 117.756 55.6762 117.681 55.6122C117.617 55.5376 117.585 55.4469 117.585 55.3402V54.7962C117.585 54.6896 117.617 54.6042 117.681 54.5402C117.756 54.4656 117.846 54.4282 117.953 54.4282H119.201V51.7562C119.201 51.6496 119.233 51.5642 119.297 51.5002C119.372 51.4256 119.462 51.3882 119.569 51.3882H120.321C120.428 51.3882 120.513 51.4256 120.577 51.5002C120.652 51.5642 120.689 51.6496 120.689 51.7562V54.4282H122.673C122.78 54.4282 122.865 54.4656 122.929 54.5402C123.004 54.6042 123.041 54.6896 123.041 54.7962V55.3402C123.041 55.4469 123.004 55.5376 122.929 55.6122C122.865 55.6762 122.78 55.7082 122.673 55.7082H120.689V59.8202C120.689 60.3216 120.774 60.7162 120.945 61.0042C121.116 61.2922 121.42 61.4362 121.857 61.4362H122.833C122.94 61.4362 123.025 61.4736 123.089 61.5482C123.164 61.6122 123.201 61.6976 123.201 61.8042V62.3802C123.201 62.4869 123.164 62.5776 123.089 62.6522C123.025 62.7162 122.94 62.7482 122.833 62.7482H121.729ZM128.139 62.9082C127.328 62.9082 126.651 62.7536 126.107 62.4442C125.563 62.1349 125.147 61.7082 124.859 61.1642C124.571 60.6096 124.411 59.9802 124.379 59.2762C124.368 59.0949 124.363 58.8656 124.363 58.5882C124.363 58.3002 124.368 58.0709 124.379 57.9002C124.411 57.1856 124.571 56.5562 124.859 56.0122C125.158 55.4682 125.579 55.0416 126.123 54.7322C126.667 54.4229 127.339 54.2682 128.139 54.2682C128.939 54.2682 129.611 54.4229 130.155 54.7322C130.699 55.0416 131.115 55.4682 131.403 56.0122C131.702 56.5562 131.867 57.1856 131.899 57.9002C131.91 58.0709 131.915 58.3002 131.915 58.5882C131.915 58.8656 131.91 59.0949 131.899 59.2762C131.867 59.9802 131.707 60.6096 131.419 61.1642C131.131 61.7082 130.715 62.1349 130.171 62.4442C129.627 62.7536 128.95 62.9082 128.139 62.9082ZM128.139 61.6762C128.8 61.6762 129.328 61.4682 129.723 61.0522C130.118 60.6256 130.331 60.0069 130.363 59.1962C130.374 59.0362 130.379 58.8336 130.379 58.5882C130.379 58.3429 130.374 58.1402 130.363 57.9802C130.331 57.1696 130.118 56.5562 129.723 56.1402C129.328 55.7136 128.8 55.5002 128.139 55.5002C127.478 55.5002 126.944 55.7136 126.539 56.1402C126.144 56.5562 125.936 57.1696 125.915 57.9802C125.904 58.1402 125.899 58.3429 125.899 58.5882C125.899 58.8336 125.904 59.0362 125.915 59.1962C125.936 60.0069 126.144 60.6256 126.539 61.0522C126.944 61.4682 127.478 61.6762 128.139 61.6762ZM140.314 62.7482C140.154 62.7482 140.026 62.7109 139.93 62.6362C139.845 62.5616 139.776 62.4656 139.722 62.3482L136.762 54.9242C136.741 54.8709 136.73 54.8176 136.73 54.7642C136.73 54.6682 136.762 54.5882 136.826 54.5242C136.89 54.4602 136.97 54.4282 137.066 54.4282H137.834C137.952 54.4282 138.042 54.4602 138.106 54.5242C138.17 54.5882 138.208 54.6469 138.218 54.7002L140.666 61.0042L143.098 54.7002C143.12 54.6469 143.157 54.5882 143.21 54.5242C143.274 54.4602 143.365 54.4282 143.482 54.4282H144.266C144.352 54.4282 144.426 54.4602 144.49 54.5242C144.565 54.5882 144.602 54.6682 144.602 54.7642C144.602 54.8176 144.592 54.8709 144.57 54.9242L141.594 62.3482C141.552 62.4656 141.482 62.5616 141.386 62.6362C141.301 62.7109 141.173 62.7482 141.002 62.7482H140.314ZM146.646 62.7482C146.539 62.7482 146.448 62.7162 146.374 62.6522C146.31 62.5776 146.278 62.4869 146.278 62.3802V54.7962C146.278 54.6896 146.31 54.6042 146.374 54.5402C146.448 54.4656 146.539 54.4282 146.646 54.4282H147.414C147.52 54.4282 147.606 54.4656 147.67 54.5402C147.734 54.6042 147.766 54.6896 147.766 54.7962V62.3802C147.766 62.4869 147.734 62.5776 147.67 62.6522C147.606 62.7162 147.52 62.7482 147.414 62.7482H146.646ZM146.518 52.8762C146.411 52.8762 146.32 52.8442 146.246 52.7802C146.182 52.7056 146.15 52.6149 146.15 52.5082V51.6442C146.15 51.5376 146.182 51.4522 146.246 51.3882C146.32 51.3136 146.411 51.2762 146.518 51.2762H147.526C147.632 51.2762 147.718 51.3136 147.782 51.3882C147.856 51.4522 147.894 51.5376 147.894 51.6442V52.5082C147.894 52.6149 147.856 52.7056 147.782 52.7802C147.718 52.8442 147.632 52.8762 147.526 52.8762H146.518ZM153.465 62.9082C152.366 62.9082 151.491 62.5722 150.841 61.9002C150.19 61.2176 149.833 60.2896 149.769 59.1162C149.758 58.9776 149.753 58.8016 149.753 58.5882C149.753 58.3642 149.758 58.1829 149.769 58.0442C149.811 57.2869 149.987 56.6256 150.297 56.0602C150.606 55.4842 151.027 55.0416 151.561 54.7322C152.105 54.4229 152.739 54.2682 153.465 54.2682C154.275 54.2682 154.953 54.4389 155.497 54.7802C156.051 55.1216 156.473 55.6069 156.761 56.2362C157.049 56.8656 157.193 57.6016 157.193 58.4442V58.7162C157.193 58.8336 157.155 58.9242 157.081 58.9882C157.017 59.0522 156.931 59.0842 156.825 59.0842H151.289C151.289 59.0949 151.289 59.1162 151.289 59.1482C151.289 59.1802 151.289 59.2069 151.289 59.2282C151.31 59.6656 151.406 60.0762 151.577 60.4602C151.747 60.8336 151.993 61.1376 152.313 61.3722C152.633 61.6069 153.017 61.7242 153.465 61.7242C153.849 61.7242 154.169 61.6656 154.425 61.5482C154.681 61.4309 154.889 61.3029 155.049 61.1642C155.209 61.0149 155.315 60.9029 155.369 60.8282C155.465 60.6896 155.539 60.6096 155.593 60.5882C155.646 60.5562 155.731 60.5402 155.849 60.5402H156.617C156.723 60.5402 156.809 60.5722 156.873 60.6362C156.947 60.6896 156.979 60.7696 156.969 60.8762C156.958 61.0362 156.873 61.2336 156.713 61.4682C156.553 61.6922 156.323 61.9162 156.025 62.1402C155.726 62.3642 155.363 62.5509 154.937 62.7002C154.51 62.8389 154.019 62.9082 153.465 62.9082ZM151.289 57.9802H155.673V57.9322C155.673 57.4522 155.582 57.0256 155.401 56.6522C155.23 56.2789 154.979 55.9856 154.649 55.7722C154.318 55.5482 153.923 55.4362 153.465 55.4362C153.006 55.4362 152.611 55.5482 152.281 55.7722C151.961 55.9856 151.715 56.2789 151.545 56.6522C151.374 57.0256 151.289 57.4522 151.289 57.9322V57.9802ZM161.095 62.7482C160.956 62.7482 160.85 62.7162 160.775 62.6522C160.7 62.5776 160.636 62.4762 160.583 62.3482L158.311 54.9242C158.29 54.8709 158.279 54.8176 158.279 54.7642C158.279 54.6682 158.311 54.5882 158.375 54.5242C158.45 54.4602 158.53 54.4282 158.615 54.4282H159.319C159.436 54.4282 159.527 54.4602 159.591 54.5242C159.655 54.5882 159.698 54.6469 159.719 54.7002L161.495 60.7322L163.399 54.7642C163.42 54.6896 163.463 54.6149 163.527 54.5402C163.602 54.4656 163.708 54.4282 163.847 54.4282H164.391C164.53 54.4282 164.636 54.4656 164.711 54.5402C164.786 54.6149 164.828 54.6896 164.839 54.7642L166.743 60.7322L168.519 54.7002C168.53 54.6469 168.567 54.5882 168.631 54.5242C168.695 54.4602 168.786 54.4282 168.903 54.4282H169.607C169.703 54.4282 169.783 54.4602 169.847 54.5242C169.911 54.5882 169.943 54.6682 169.943 54.7642C169.943 54.8176 169.932 54.8709 169.911 54.9242L167.639 62.3482C167.607 62.4762 167.548 62.5776 167.463 62.6522C167.388 62.7162 167.276 62.7482 167.127 62.7482H166.503C166.364 62.7482 166.247 62.7162 166.151 62.6522C166.066 62.5776 166.007 62.4762 165.975 62.3482L164.119 56.6202L162.263 62.3482C162.22 62.4762 162.156 62.5776 162.071 62.6522C161.986 62.7162 161.868 62.7482 161.719 62.7482H161.095Z" fill="white"/>
</svg>
