<svg width="895" height="430" viewBox="0 0 895 430" fill="none" xmlns="http://www.w3.org/2000/svg">
<path d="M192.281 233.24V256.2C192.281 263.635 193.265 268.992 195.233 272.272C197.201 275.552 200.263 277.192 204.417 277.192C208.572 277.192 211.415 276.536 212.945 275.224C214.476 273.693 216.007 270.96 217.537 267.024C219.287 262.869 222.457 260.792 227.049 260.792H291.009C293.415 260.792 295.492 261.667 297.241 263.416C298.991 265.165 299.865 267.461 299.865 270.304C299.865 273.147 298.881 276.973 296.913 281.784C294.945 286.595 291.556 292.061 286.745 298.184C281.935 304.307 276.031 309.992 269.033 315.24C262.036 320.269 252.852 324.533 241.481 328.032C230.111 331.531 217.537 333.28 203.761 333.28C176.428 333.28 154.233 326.173 137.177 311.96C120.34 297.528 111.921 277.629 111.921 252.264V237.176C111.921 211.811 120.34 192.021 137.177 177.808C154.233 163.376 176.428 156.16 203.761 156.16C219.943 156.16 234.593 158.675 247.713 163.704C260.833 168.515 270.892 174.528 277.889 181.744C285.105 188.741 290.572 195.629 294.289 202.408C298.007 209.187 299.865 214.435 299.865 218.152C299.865 221.651 298.991 224.275 297.241 226.024C295.492 227.773 293.415 228.648 291.009 228.648H227.049C222.895 228.648 219.724 226.461 217.537 222.088C214.476 215.528 210.431 212.248 205.401 212.248C196.655 212.248 192.281 219.245 192.281 233.24ZM354.213 121.392C374.331 105.211 400.899 97.12 433.917 97.12C466.936 97.12 493.395 105.32 513.293 121.72C533.411 137.901 543.469 160.752 543.469 190.272V241.44C543.469 271.397 533.52 294.248 513.621 309.992C493.941 325.517 467.373 333.28 433.917 333.28C400.461 333.28 373.784 325.517 353.885 309.992C334.205 294.248 324.365 271.397 324.365 241.44V190.272C324.365 160.533 334.315 137.573 354.213 121.392ZM416.205 262.76C420.579 267.133 426.483 269.32 433.917 269.32C441.352 269.32 447.256 267.133 451.629 262.76C456.003 258.387 458.189 251.717 458.189 242.752V187.648C458.189 178.901 456.003 172.341 451.629 167.968C447.256 163.376 441.352 161.08 433.917 161.08C426.483 161.08 420.579 163.376 416.205 167.968C411.832 172.341 409.645 178.901 409.645 187.648V242.752C409.645 251.717 411.832 258.387 416.205 262.76ZM573.584 172.56C573.584 150.256 582.768 132.107 601.136 118.112C619.723 104.117 643.995 97.12 673.952 97.12C704.128 97.12 728.728 104.445 747.752 119.096C766.995 133.747 776.616 149.053 776.616 165.016C776.616 166.984 775.851 168.733 774.32 170.264C773.008 171.576 771.477 172.232 769.728 172.232H704.128C699.099 172.232 694.507 170.373 690.352 166.656C686.197 162.939 680.621 161.08 673.624 161.08C663.128 161.08 657.88 164.141 657.88 170.264C657.88 173.544 660.395 176.277 665.424 178.464C670.672 180.651 680.293 182.619 694.288 184.368C726.869 188.523 750.048 196.176 763.824 207.328C777.819 218.261 784.816 234.989 784.816 257.512C784.816 279.816 774.539 298.075 753.984 312.288C733.648 326.283 706.971 333.28 673.952 333.28C640.933 333.28 615.021 326.501 596.216 312.944C577.411 299.387 568.008 282.877 568.008 263.416C568.008 261.448 568.664 259.808 569.976 258.496C571.507 256.965 573.256 256.2 575.224 256.2H637.544C642.136 256.2 647.165 258.387 652.632 262.76C658.317 267.133 666.08 269.32 675.92 269.32C692.32 269.32 700.52 266.259 700.52 260.136C700.52 256.2 697.568 253.248 691.664 251.28C685.76 249.093 674.608 246.907 658.208 244.72C601.792 237.285 573.584 213.232 573.584 172.56Z" fill="black"/>
</svg>
