<svg width="645" height="98" viewBox="0 0 645 98" fill="none" xmlns="http://www.w3.org/2000/svg">
<circle cx="67.5" cy="43.6458" r="7.91666" fill="black"/>
<circle cx="67.5" cy="43.6458" r="14.3333" stroke="black" stroke-width="3"/>
<circle cx="51.6666" cy="19.8958" r="3.95833" fill="black"/>
<circle cx="51.6666" cy="19.8958" r="8.39583" stroke="black" stroke-width="3"/>
<circle cx="83.3334" cy="19.8958" r="3.95833" fill="black"/>
<circle cx="83.3333" cy="19.8958" r="8.39583" stroke="black" stroke-width="3"/>
<circle cx="51.6667" cy="73.3333" r="4.9375" stroke="black" stroke-width="2"/>
<circle cx="51.6667" cy="73.3333" r="12.3542" stroke="black" stroke-width="3"/>
<circle cx="83.3333" cy="73.3333" r="4.9375" stroke="black" stroke-width="2"/>
<circle cx="83.3333" cy="73.3333" r="12.3542" stroke="black" stroke-width="3"/>
<circle cx="101.146" cy="43.6458" r="4.9375" stroke="black" stroke-width="2"/>
<circle cx="101.146" cy="43.6458" r="12.3542" stroke="black" stroke-width="3"/>
<circle cx="33.8542" cy="43.6458" r="4.9375" stroke="black" stroke-width="2"/>
<circle cx="33.8542" cy="43.6458" r="12.3542" stroke="black" stroke-width="3"/>
<path d="M170.584 28.0217C171.224 26.8697 172.141 26.2937 173.336 26.2937H185.048C185.517 26.2937 185.923 26.4644 186.264 26.8057C186.605 27.1471 186.776 27.5524 186.776 28.0217V69.3657C186.776 69.8351 186.605 70.2404 186.264 70.5817C185.923 70.9231 185.517 71.0938 185.048 71.0938H173.464C172.995 71.0938 172.589 70.9231 172.248 70.5817C171.907 70.2404 171.736 69.8351 171.736 69.3657V49.5257L167.064 58.7417C166.936 59.0404 166.637 59.3817 166.168 59.7657C165.699 60.1497 165.101 60.3417 164.376 60.3417H160.024C159.299 60.3417 158.701 60.1497 158.232 59.7657C157.763 59.3817 157.464 59.0404 157.336 58.7417L152.664 49.5257V69.3657C152.664 69.8351 152.493 70.2404 152.152 70.5817C151.811 70.9231 151.405 71.0938 150.936 71.0938H139.352C138.883 71.0938 138.477 70.9231 138.136 70.5817C137.795 70.2404 137.624 69.8351 137.624 69.3657V28.0217C137.624 27.5524 137.795 27.1471 138.136 26.8057C138.477 26.4644 138.883 26.2937 139.352 26.2937H151.064C152.259 26.2937 153.176 26.8697 153.816 28.0217L162.2 43.3817L170.584 28.0217ZM237.311 58.6137C237.78 58.6137 238.186 58.7844 238.527 59.1257C238.868 59.4671 239.039 59.8724 239.039 60.3417V69.3657C239.039 69.8351 238.868 70.2404 238.527 70.5817C238.186 70.9231 237.78 71.0938 237.311 71.0938H196.863C196.394 71.0938 195.988 70.9231 195.647 70.5817C195.306 70.2404 195.135 69.8351 195.135 69.3657V28.0217C195.135 27.5524 195.306 27.1471 195.647 26.8057C195.988 26.4644 196.394 26.2937 196.863 26.2937H236.671C237.14 26.2937 237.546 26.4644 237.887 26.8057C238.228 27.1471 238.399 27.5524 238.399 28.0217V37.0457C238.399 37.5151 238.228 37.9204 237.887 38.2617C237.546 38.6031 237.14 38.7738 236.671 38.7738H211.775V42.8057H233.151C233.62 42.8057 234.026 42.9764 234.367 43.3177C234.708 43.6591 234.879 44.0644 234.879 44.5337V52.8537C234.879 53.3231 234.708 53.7284 234.367 54.0697C234.026 54.4111 233.62 54.5817 233.151 54.5817H211.775V58.6137H237.311ZM293.99 44.0857C294.459 44.0857 294.865 44.2564 295.206 44.5977C295.547 44.9391 295.718 45.3444 295.718 45.8137V52.5977C295.718 59.0831 293.499 63.9044 289.062 67.0617C284.667 70.1764 278.843 71.7338 271.59 71.7338C264.337 71.7338 258.491 70.1764 254.054 67.0617C249.659 63.9044 247.462 59.0404 247.462 52.4697V44.9177C247.462 40.5657 248.529 36.9604 250.662 34.1017C252.795 31.2004 255.675 29.0671 259.302 27.7017C262.929 26.3364 267.025 25.6537 271.59 25.6537C277.051 25.6537 281.553 26.5497 285.094 28.3417C288.635 30.1337 291.195 32.1604 292.774 34.4217C294.395 36.6831 295.206 38.5177 295.206 39.9257C295.206 40.3097 295.057 40.6511 294.758 40.9497C294.502 41.2057 294.182 41.3337 293.798 41.3337H279.334C278.481 41.3337 277.862 41.0991 277.478 40.6297C276.155 38.9657 274.193 38.1337 271.59 38.1337C269.627 38.1337 267.985 38.5817 266.662 39.4777C265.382 40.3737 264.742 41.5257 264.742 42.9337V53.8137C264.742 55.5204 265.382 56.8644 266.662 57.8457C267.942 58.7844 269.585 59.2537 271.59 59.2537C274.235 59.2537 276.177 58.8057 277.414 57.9097C278.694 56.9711 279.355 55.8831 279.398 54.6458H275.43C274.961 54.6458 274.555 54.4751 274.214 54.1337C273.873 53.7924 273.702 53.3871 273.702 52.9177V45.8137C273.702 45.3444 273.873 44.9391 274.214 44.5977C274.555 44.2564 274.961 44.0857 275.43 44.0857H293.99ZM316.109 68.9177C315.554 70.3684 314.594 71.0938 313.229 71.0938H301.133C300.749 71.0938 300.408 70.9657 300.109 70.7097C299.853 70.4111 299.725 70.0697 299.725 69.6857L299.789 69.3017L313.741 28.4057C313.912 27.8511 314.232 27.3604 314.701 26.9337C315.17 26.5071 315.81 26.2937 316.621 26.2937H334.413C335.224 26.2937 335.864 26.5071 336.333 26.9337C336.802 27.3604 337.122 27.8511 337.293 28.4057L351.245 69.3017L351.309 69.6857C351.309 70.0697 351.16 70.4111 350.861 70.7097C350.605 70.9657 350.285 71.0938 349.901 71.0938H337.805C336.44 71.0938 335.48 70.3684 334.925 68.9177L333.325 64.4377H317.709L316.109 68.9177ZM325.517 38.6457L320.973 51.9577H330.061L325.517 38.6457ZM401.012 26.2937C401.481 26.2937 401.887 26.4644 402.228 26.8057C402.569 27.1471 402.74 27.5524 402.74 28.0217V69.3657C402.74 69.8351 402.569 70.2404 402.228 70.5817C401.887 70.9231 401.481 71.0938 401.012 71.0938H387.828C387.359 71.0938 386.953 70.9231 386.612 70.5817C386.271 70.2404 386.1 69.8351 386.1 69.3657V55.7337H373.3V69.3657C373.3 69.8351 373.129 70.2404 372.788 70.5817C372.447 70.9231 372.041 71.0938 371.572 71.0938H358.388C357.919 71.0938 357.513 70.9444 357.172 70.6457C356.831 70.3044 356.66 69.8777 356.66 69.3657V28.0217C356.66 27.5524 356.831 27.1471 357.172 26.8057C357.513 26.4644 357.919 26.2937 358.388 26.2937H371.572C372.041 26.2937 372.447 26.4644 372.788 26.8057C373.129 27.1471 373.3 27.5524 373.3 28.0217V41.1417H386.1V28.0217C386.1 27.5524 386.271 27.1471 386.612 26.8057C386.953 26.4644 387.359 26.2937 387.828 26.2937H401.012ZM454.811 58.6137C455.28 58.6137 455.686 58.7844 456.027 59.1257C456.368 59.4671 456.539 59.8724 456.539 60.3417V69.3657C456.539 69.8351 456.368 70.2404 456.027 70.5817C455.686 70.9231 455.28 71.0938 454.811 71.0938H414.363C413.894 71.0938 413.488 70.9231 413.147 70.5817C412.806 70.2404 412.635 69.8351 412.635 69.3657V28.0217C412.635 27.5524 412.806 27.1471 413.147 26.8057C413.488 26.4644 413.894 26.2937 414.363 26.2937H454.171C454.64 26.2937 455.046 26.4644 455.387 26.8057C455.728 27.1471 455.899 27.5524 455.899 28.0217V37.0457C455.899 37.5151 455.728 37.9204 455.387 38.2617C455.046 38.6031 454.64 38.7738 454.171 38.7738H429.275V42.8057H450.651C451.12 42.8057 451.526 42.9764 451.867 43.3177C452.208 43.6591 452.379 44.0644 452.379 44.5337V52.8537C452.379 53.3231 452.208 53.7284 451.867 54.0697C451.526 54.4111 451.12 54.5817 450.651 54.5817H429.275V58.6137H454.811ZM508.482 26.2937C508.951 26.2937 509.357 26.4644 509.698 26.8057C510.039 27.1471 510.21 27.5524 510.21 28.0217V69.3657C510.21 69.8351 510.039 70.2404 509.698 70.5817C509.357 70.9231 508.951 71.0938 508.482 71.0938H498.178C497.154 71.0938 496.301 70.6457 495.618 69.7497L481.666 51.9577V69.3657C481.666 69.8351 481.495 70.2404 481.154 70.5817C480.813 70.9231 480.407 71.0938 479.938 71.0938H468.034C467.565 71.0938 467.159 70.9231 466.818 70.5817C466.477 70.2404 466.306 69.8351 466.306 69.3657V28.0217C466.306 27.5524 466.477 27.1471 466.818 26.8057C467.159 26.4644 467.565 26.2937 468.034 26.2937H478.402C479.426 26.2937 480.258 26.7204 480.898 27.5737L494.85 46.8377V28.0217C494.85 27.5524 495.021 27.1471 495.362 26.8057C495.703 26.4644 496.109 26.2937 496.578 26.2937H508.482ZM568.233 69.1097C568.318 69.2804 568.361 69.4724 568.361 69.6857C568.361 70.0697 568.212 70.4111 567.913 70.7097C567.657 70.9657 567.337 71.0938 566.953 71.0938H552.425C551.828 71.0938 551.273 70.9444 550.761 70.6457C550.292 70.3471 549.95 69.9631 549.737 69.4937L544.105 56.8217H538.729V69.3657C538.729 69.8351 538.558 70.2404 538.217 70.5817C537.876 70.9231 537.47 71.0938 537.001 71.0938H523.177C522.708 71.0938 522.302 70.9231 521.961 70.5817C521.62 70.2404 521.449 69.8351 521.449 69.3657V28.0217C521.449 27.5524 521.62 27.1471 521.961 26.8057C522.302 26.4644 522.708 26.2937 523.177 26.2937H548.073C551.913 26.2937 555.262 26.9124 558.121 28.1497C561.022 29.3871 563.241 31.1791 564.777 33.5257C566.313 35.8724 567.081 38.6244 567.081 41.7817C567.081 47.5844 564.841 51.7871 560.361 54.3897L568.233 69.1097ZM546.729 44.9817C547.668 44.9817 548.393 44.6831 548.905 44.0857C549.417 43.4457 549.673 42.6564 549.673 41.7177C549.673 40.7791 549.417 39.9684 548.905 39.2857C548.436 38.5604 547.71 38.1978 546.729 38.1978H538.729V44.9817H546.729ZM620.624 26.2937C621.008 26.2937 621.328 26.4431 621.584 26.7417C621.883 26.9977 622.032 27.2964 622.032 27.6377C622.032 27.8937 621.968 28.1497 621.84 28.4057L605.712 55.0938V69.3657C605.712 69.8351 605.541 70.2404 605.2 70.5817C604.859 70.9231 604.453 71.0938 603.984 71.0938H590.352C589.883 71.0938 589.477 70.9231 589.136 70.5817C588.795 70.2404 588.624 69.8351 588.624 69.3657V55.0938L572.56 28.4057C572.432 28.1497 572.368 27.9151 572.368 27.7017C572.368 27.3177 572.496 26.9977 572.752 26.7417C573.051 26.4431 573.392 26.2937 573.776 26.2937H587.28C588.475 26.2937 589.349 26.7844 589.904 27.7657L597.136 40.4377L604.56 27.8937C605.2 26.8271 606.096 26.2937 607.248 26.2937H620.624Z" fill="black"/>
</svg>
