<svg width="530" height="65" viewBox="0 0 530 65" fill="none" xmlns="http://www.w3.org/2000/svg">
<path d="M55.584 11.928C56.224 10.776 57.1413 10.2 58.336 10.2H70.048C70.5173 10.2 70.9227 10.3707 71.264 10.712C71.6053 11.0533 71.776 11.4587 71.776 11.928V53.272C71.776 53.7413 71.6053 54.1467 71.264 54.488C70.9227 54.8293 70.5173 55 70.048 55H58.464C57.9947 55 57.5893 54.8293 57.248 54.488C56.9067 54.1467 56.736 53.7413 56.736 53.272V33.432L52.064 42.648C51.936 42.9467 51.6373 43.288 51.168 43.672C50.6987 44.056 50.1013 44.248 49.376 44.248H45.024C44.2987 44.248 43.7013 44.056 43.232 43.672C42.7627 43.288 42.464 42.9467 42.336 42.648L37.664 33.432V53.272C37.664 53.7413 37.4933 54.1467 37.152 54.488C36.8107 54.8293 36.4053 55 35.936 55H24.352C23.8827 55 23.4773 54.8293 23.136 54.488C22.7947 54.1467 22.624 53.7413 22.624 53.272V11.928C22.624 11.4587 22.7947 11.0533 23.136 10.712C23.4773 10.3707 23.8827 10.2 24.352 10.2H36.064C37.2587 10.2 38.176 10.776 38.816 11.928L47.2 27.288L55.584 11.928ZM122.311 42.52C122.78 42.52 123.186 42.6907 123.527 43.032C123.868 43.3733 124.039 43.7787 124.039 44.248V53.272C124.039 53.7413 123.868 54.1467 123.527 54.488C123.186 54.8293 122.78 55 122.311 55H81.863C81.3937 55 80.9883 54.8293 80.647 54.488C80.3057 54.1467 80.135 53.7413 80.135 53.272V11.928C80.135 11.4587 80.3057 11.0533 80.647 10.712C80.9883 10.3707 81.3937 10.2 81.863 10.2H121.671C122.14 10.2 122.546 10.3707 122.887 10.712C123.228 11.0533 123.399 11.4587 123.399 11.928V20.952C123.399 21.4213 123.228 21.8267 122.887 22.168C122.546 22.5093 122.14 22.68 121.671 22.68H96.775V26.712H118.151C118.62 26.712 119.026 26.8827 119.367 27.224C119.708 27.5653 119.879 27.9707 119.879 28.44V36.76C119.879 37.2293 119.708 37.6347 119.367 37.976C119.026 38.3173 118.62 38.488 118.151 38.488H96.775V42.52H122.311ZM178.99 27.992C179.459 27.992 179.865 28.1627 180.206 28.504C180.547 28.8453 180.718 29.2507 180.718 29.72V36.504C180.718 42.9893 178.499 47.8107 174.062 50.968C169.667 54.0827 163.843 55.64 156.59 55.64C149.337 55.64 143.491 54.0827 139.054 50.968C134.659 47.8107 132.462 42.9467 132.462 36.376V28.824C132.462 24.472 133.529 20.8667 135.662 18.008C137.795 15.1067 140.675 12.9733 144.302 11.608C147.929 10.2427 152.025 9.56 156.59 9.56C162.051 9.56 166.553 10.456 170.094 12.248C173.635 14.04 176.195 16.0667 177.774 18.328C179.395 20.5893 180.206 22.424 180.206 23.832C180.206 24.216 180.057 24.5573 179.758 24.856C179.502 25.112 179.182 25.24 178.798 25.24H164.334C163.481 25.24 162.862 25.0053 162.478 24.536C161.155 22.872 159.193 22.04 156.59 22.04C154.627 22.04 152.985 22.488 151.662 23.384C150.382 24.28 149.742 25.432 149.742 26.84V37.72C149.742 39.4267 150.382 40.7707 151.662 41.752C152.942 42.6907 154.585 43.16 156.59 43.16C159.235 43.16 161.177 42.712 162.414 41.816C163.694 40.8773 164.355 39.7893 164.398 38.552H160.43C159.961 38.552 159.555 38.3813 159.214 38.04C158.873 37.6987 158.702 37.2933 158.702 36.824V29.72C158.702 29.2507 158.873 28.8453 159.214 28.504C159.555 28.1627 159.961 27.992 160.43 27.992H178.99ZM201.109 52.824C200.554 54.2747 199.594 55 198.229 55H186.133C185.749 55 185.408 54.872 185.109 54.616C184.853 54.3173 184.725 53.976 184.725 53.592L184.789 53.208L198.741 12.312C198.912 11.7573 199.232 11.2667 199.701 10.84C200.17 10.4133 200.81 10.2 201.621 10.2H219.413C220.224 10.2 220.864 10.4133 221.333 10.84C221.802 11.2667 222.122 11.7573 222.293 12.312L236.245 53.208L236.309 53.592C236.309 53.976 236.16 54.3173 235.861 54.616C235.605 54.872 235.285 55 234.901 55H222.805C221.44 55 220.48 54.2747 219.925 52.824L218.325 48.344H202.709L201.109 52.824ZM210.517 22.552L205.973 35.864H215.061L210.517 22.552ZM286.012 10.2C286.481 10.2 286.887 10.3707 287.228 10.712C287.569 11.0533 287.74 11.4587 287.74 11.928V53.272C287.74 53.7413 287.569 54.1467 287.228 54.488C286.887 54.8293 286.481 55 286.012 55H272.828C272.359 55 271.953 54.8293 271.612 54.488C271.271 54.1467 271.1 53.7413 271.1 53.272V39.64H258.3V53.272C258.3 53.7413 258.129 54.1467 257.788 54.488C257.447 54.8293 257.041 55 256.572 55H243.388C242.919 55 242.513 54.8507 242.172 54.552C241.831 54.2107 241.66 53.784 241.66 53.272V11.928C241.66 11.4587 241.831 11.0533 242.172 10.712C242.513 10.3707 242.919 10.2 243.388 10.2H256.572C257.041 10.2 257.447 10.3707 257.788 10.712C258.129 11.0533 258.3 11.4587 258.3 11.928V25.048H271.1V11.928C271.1 11.4587 271.271 11.0533 271.612 10.712C271.953 10.3707 272.359 10.2 272.828 10.2H286.012ZM339.811 42.52C340.28 42.52 340.686 42.6907 341.027 43.032C341.368 43.3733 341.539 43.7787 341.539 44.248V53.272C341.539 53.7413 341.368 54.1467 341.027 54.488C340.686 54.8293 340.28 55 339.811 55H299.363C298.894 55 298.488 54.8293 298.147 54.488C297.806 54.1467 297.635 53.7413 297.635 53.272V11.928C297.635 11.4587 297.806 11.0533 298.147 10.712C298.488 10.3707 298.894 10.2 299.363 10.2H339.171C339.64 10.2 340.046 10.3707 340.387 10.712C340.728 11.0533 340.899 11.4587 340.899 11.928V20.952C340.899 21.4213 340.728 21.8267 340.387 22.168C340.046 22.5093 339.64 22.68 339.171 22.68H314.275V26.712H335.651C336.12 26.712 336.526 26.8827 336.867 27.224C337.208 27.5653 337.379 27.9707 337.379 28.44V36.76C337.379 37.2293 337.208 37.6347 336.867 37.976C336.526 38.3173 336.12 38.488 335.651 38.488H314.275V42.52H339.811ZM393.482 10.2C393.951 10.2 394.357 10.3707 394.698 10.712C395.039 11.0533 395.21 11.4587 395.21 11.928V53.272C395.21 53.7413 395.039 54.1467 394.698 54.488C394.357 54.8293 393.951 55 393.482 55H383.178C382.154 55 381.301 54.552 380.618 53.656L366.666 35.864V53.272C366.666 53.7413 366.495 54.1467 366.154 54.488C365.813 54.8293 365.407 55 364.938 55H353.034C352.565 55 352.159 54.8293 351.818 54.488C351.477 54.1467 351.306 53.7413 351.306 53.272V11.928C351.306 11.4587 351.477 11.0533 351.818 10.712C352.159 10.3707 352.565 10.2 353.034 10.2H363.402C364.426 10.2 365.258 10.6267 365.898 11.48L379.85 30.744V11.928C379.85 11.4587 380.021 11.0533 380.362 10.712C380.703 10.3707 381.109 10.2 381.578 10.2H393.482ZM453.233 53.016C453.318 53.1867 453.361 53.3787 453.361 53.592C453.361 53.976 453.212 54.3173 452.913 54.616C452.657 54.872 452.337 55 451.953 55H437.425C436.828 55 436.273 54.8507 435.761 54.552C435.292 54.2533 434.95 53.8693 434.737 53.4L429.105 40.728H423.729V53.272C423.729 53.7413 423.558 54.1467 423.217 54.488C422.876 54.8293 422.47 55 422.001 55H408.177C407.708 55 407.302 54.8293 406.961 54.488C406.62 54.1467 406.449 53.7413 406.449 53.272V11.928C406.449 11.4587 406.62 11.0533 406.961 10.712C407.302 10.3707 407.708 10.2 408.177 10.2H433.073C436.913 10.2 440.262 10.8187 443.121 12.056C446.022 13.2933 448.241 15.0853 449.777 17.432C451.313 19.7787 452.081 22.5307 452.081 25.688C452.081 31.4907 449.841 35.6933 445.361 38.296L453.233 53.016ZM431.729 28.888C432.668 28.888 433.393 28.5893 433.905 27.992C434.417 27.352 434.673 26.5627 434.673 25.624C434.673 24.6853 434.417 23.8747 433.905 23.192C433.436 22.4667 432.71 22.104 431.729 22.104H423.729V28.888H431.729ZM505.624 10.2C506.008 10.2 506.328 10.3493 506.584 10.648C506.883 10.904 507.032 11.2027 507.032 11.544C507.032 11.8 506.968 12.056 506.84 12.312L490.712 39V53.272C490.712 53.7413 490.541 54.1467 490.2 54.488C489.859 54.8293 489.453 55 488.984 55H475.352C474.883 55 474.477 54.8293 474.136 54.488C473.795 54.1467 473.624 53.7413 473.624 53.272V39L457.56 12.312C457.432 12.056 457.368 11.8213 457.368 11.608C457.368 11.224 457.496 10.904 457.752 10.648C458.051 10.3493 458.392 10.2 458.776 10.2H472.28C473.475 10.2 474.349 10.6907 474.904 11.672L482.136 24.344L489.56 11.8C490.2 10.7333 491.096 10.2 492.248 10.2H505.624Z" fill="black"/>
</svg>
